<svg xmlns="http://www.w3.org/2000/svg" width="41" height="41" viewBox="0 0 41 41" fill="none"><path d="M14.9607 23.8388L21.8594 19.4956L16.8628 24.0095L16.6384 24.2122L16.6174 24.5139L16.2628 29.5988L16.2068 30.401H17.011C17.3905 30.401 17.7077 30.3147 17.9854 30.1532C18.2256 30.0135 18.409 29.8296 18.5304 29.708C18.5349 29.7034 18.5394 29.6989 18.5438 29.6946L20.4923 27.8178L24.9791 31.125L25.0153 31.1517L25.0545 31.1739C25.5978 31.4816 26.2601 31.6694 26.8867 31.3859C27.5107 31.1036 27.8198 30.4795 27.9616 29.8367L27.9616 29.8367L27.9629 29.8308L31.2424 14.376C31.2424 14.3759 31.2424 14.3758 31.2424 14.3758C31.4156 13.5675 31.3131 12.783 30.7835 12.2673C30.2451 11.7429 29.494 11.7165 28.8687 11.9418L28.8609 11.9446L28.8531 11.9476L9.58512 19.3776L9.5823 19.3787C9.20253 19.5269 8.87059 19.7087 8.61644 19.932C8.36629 20.1517 8.1327 20.4665 8.09743 20.8728C8.06008 21.303 8.25931 21.6547 8.51287 21.8931C8.75577 22.1214 9.073 22.2758 9.40347 22.3801L9.40588 22.3809L14.3377 23.9201L14.668 24.0231L14.9607 23.8388ZM1.4585 20.5126C1.4585 9.88656 10.0677 1.27734 20.6937 1.27734C31.3197 1.27734 39.929 9.88656 39.929 20.5126C39.929 31.1386 31.3197 39.7478 20.6937 39.7478C10.0677 39.7478 1.4585 31.1386 1.4585 20.5126Z" stroke="white" stroke-width="1.5"/></svg>