<svg xmlns="http://www.w3.org/2000/svg" width="42" height="42" viewBox="0 0 42 42" fill="none"><path d="M21.2743 1.52734C17.8679 1.531 14.5211 2.42071 11.563 4.10898C8.60482 5.79726 6.13716 8.22598 4.40262 11.1564C2.66808 14.0867 1.72636 17.4179 1.67007 20.8223C1.61378 24.2266 2.44485 27.5871 4.08157 30.5731L1.66455 40.7291L11.8251 38.3132C14.4458 39.7502 17.3604 40.5693 20.3462 40.708C23.332 40.8467 26.3101 40.3013 29.0528 39.1135C31.7954 37.9257 34.2302 36.1269 36.1709 33.8546C38.1116 31.5823 39.5069 28.8966 40.2503 26.0027C40.9936 23.1089 41.0653 20.0835 40.4598 17.1577C39.8543 14.232 38.5877 11.4833 36.7567 9.12169C34.9258 6.76011 32.579 4.84816 29.8956 3.53193C27.2123 2.21571 24.2634 1.53005 21.2743 1.52734ZM11.4694 10.4344H16.8142C17.0561 10.4344 17.2881 10.5304 17.4592 10.7014C17.6302 10.8723 17.7263 11.1042 17.7263 11.346C17.6964 12.5618 17.9008 13.772 18.3283 14.9107C18.5124 15.2918 18.5529 15.7265 18.4423 16.1351C18.3317 16.5437 18.0775 16.8987 17.7263 17.1351L15.8565 18.9585C16.6856 20.5767 17.7696 22.0512 19.0671 23.3254C20.3315 24.6434 21.8007 25.7486 23.4177 26.5983L25.2419 24.7293C26.154 23.8177 26.5735 23.8177 27.4674 24.1276C28.6065 24.555 29.8172 24.7592 31.0336 24.7293C31.2719 24.7404 31.4975 24.84 31.6662 25.0087C31.8349 25.1773 31.9346 25.4028 31.9457 25.641V30.9834C31.9346 31.2216 31.8349 31.4471 31.6662 31.6157C31.4975 31.7843 31.2719 31.884 31.0336 31.8951C25.6684 31.6614 20.5826 29.4382 16.7686 25.6592C12.982 21.851 10.7568 16.7651 10.53 11.4007C10.5322 11.1498 10.631 10.9093 10.806 10.7294C10.9809 10.5494 11.2185 10.4437 11.4694 10.4344Z" stroke="white" stroke-width="1.5" stroke-linecap="round" stroke-linejoin="round"/></svg>