<svg xmlns="http://www.w3.org/2000/svg" width="41" height="42" viewBox="0 0 41 42" fill="none"><path d="M20.6952 0.802246C16.7425 0.802246 12.8786 2.00441 9.592 4.25673C6.30545 6.50904 3.74389 9.71033 2.23125 13.4558C0.71862 17.2013 0.322846 21.3226 1.09398 25.2988C1.86511 29.275 3.76852 32.9273 6.56351 35.7939C9.35849 38.6606 12.9195 40.6128 16.7963 41.4037C20.673 42.1946 24.6914 41.7887 28.3432 40.2373C31.995 38.6859 35.1163 36.0586 37.3123 32.6878C39.5083 29.317 40.6804 25.354 40.6804 21.2999C40.6746 15.8654 38.5671 10.6552 34.8204 6.81246C31.0738 2.9697 25.9938 0.808214 20.6952 0.802246ZM21.4946 40.1393V25.3994H27.0905C27.3025 25.3994 27.5058 25.3131 27.6557 25.1593C27.8056 25.0055 27.8899 24.797 27.8899 24.5795C27.8899 24.3621 27.8056 24.1535 27.6557 23.9998C27.5058 23.846 27.3025 23.7596 27.0905 23.7596H21.4946V18.0203C21.4946 16.933 21.9157 15.8903 22.6653 15.1215C23.4149 14.3527 24.4316 13.9207 25.4916 13.9207H28.6893C28.9013 13.9207 29.1046 13.8344 29.2545 13.6806C29.4045 13.5268 29.4887 13.3183 29.4887 13.1008C29.4887 12.8834 29.4045 12.6748 29.2545 12.5211C29.1046 12.3673 28.9013 12.2809 28.6893 12.2809H25.4916C24.0075 12.2809 22.5842 12.8856 21.5348 13.962C20.4853 15.0383 19.8958 16.4981 19.8958 18.0203V23.7596H14.2999C14.0879 23.7596 13.8846 23.846 13.7347 23.9998C13.5847 24.1535 13.5005 24.3621 13.5005 24.5795C13.5005 24.797 13.5847 25.0055 13.7347 25.1593C13.8846 25.3131 14.0879 25.3994 14.2999 25.3994H19.8958V40.1393C15.0932 39.9249 10.5634 37.79 7.27695 34.1918C3.99045 30.5937 2.20861 25.8185 2.31313 20.8892C2.41766 15.96 4.40025 11.2688 7.83617 7.82059C11.2721 4.37238 15.8881 2.44144 20.6952 2.44144C25.5023 2.44144 30.1183 4.37238 33.5542 7.82059C36.9901 11.2688 38.9727 15.96 39.0772 20.8892C39.1818 25.8185 37.3999 30.5937 34.1134 34.1918C30.8269 37.79 26.2972 39.9249 21.4946 40.1393Z" fill="white"/></svg>