<svg xmlns="http://www.w3.org/2000/svg" width="38" height="38" viewBox="0 0 38 38" fill="none"><path d="M27.5246 1.11816H10.8719C5.49858 1.11816 1.14355 5.47396 1.14355 10.8465V27.4992C1.14355 32.8726 5.49935 37.2276 10.8727 37.2276H27.5239C32.8972 37.2276 37.253 32.8718 37.253 27.4985V10.8465C37.253 5.47319 32.898 1.11816 27.5246 1.11816Z" stroke="white" stroke-width="1.5" stroke-miterlimit="10"/><path d="M19.1977 27.889C24.0115 27.889 27.9139 23.9866 27.9139 19.1728C27.9139 14.3589 24.0115 10.4565 19.1977 10.4565C14.3838 10.4565 10.4814 14.3589 10.4814 19.1728C10.4814 23.9866 14.3838 27.889 19.1977 27.889Z" stroke="white" stroke-width="2" stroke-miterlimit="10"/><path d="M29.7821 10.4573C30.8135 10.4573 31.6496 9.62113 31.6496 8.58971C31.6496 7.5583 30.8135 6.72217 29.7821 6.72217C28.7507 6.72217 27.9146 7.5583 27.9146 8.58971C27.9146 9.62113 28.7507 10.4573 29.7821 10.4573Z" fill="white"/></svg>