<svg xmlns="http://www.w3.org/2000/svg" width="67" height="67" viewBox="0 0 67 67" fill="none"><path d="M32.8339 7.67712H10.4684C9.72803 7.67712 9.01796 7.97125 8.49442 8.49478C7.97088 9.01832 7.67676 9.72839 7.67676 10.4688V56.5313C7.67676 57.2717 7.97088 57.9818 8.49442 58.5053C9.01796 59.0288 9.72803 59.323 10.4684 59.323H56.5309C57.2713 59.323 57.9814 59.0288 58.5049 58.5053C59.0285 57.9818 59.3226 57.2717 59.3226 56.5313V10.4688C59.3226 9.72839 59.0285 9.01832 58.5049 8.49478C57.9814 7.97125 57.2713 7.67712 56.5309 7.67712H49.6243" stroke="white" stroke-width="2.5" stroke-linecap="round" stroke-linejoin="round"></path><path d="M48.5607 34.9768L59.3226 33.3186M7.67676 41.2776L35.3422 37.0134M24.9963 38.6088L19.7758 7.67714M41.2298 4.69983C39.4784 4.69983 37.7442 5.04482 36.1261 5.71509C34.508 6.38536 33.0378 7.36779 31.7995 8.60628C30.5611 9.84478 29.5788 11.3151 28.9087 12.9332C28.2386 14.5513 27.8938 16.2856 27.894 18.037C27.894 28.4737 38.1017 41.0543 40.7454 44.1363C40.8215 44.2253 40.916 44.2967 41.0224 44.3455C41.1288 44.3943 41.2445 44.4192 41.3616 44.4187C41.4787 44.4182 41.5942 44.3921 41.7002 44.3424C41.8061 44.2927 41.9 44.2204 41.9752 44.1307C44.5742 41.0376 54.5656 28.4667 54.5656 18.037C54.5658 16.2856 54.221 14.5513 53.5509 12.9332C52.8808 11.3151 51.8985 9.84478 50.6601 8.60628C49.4218 7.36779 47.9516 6.38536 46.3335 5.71509C44.7154 5.04482 42.9812 4.69983 41.2298 4.69983ZM41.2298 23.0201C40.2442 23.0201 39.2808 22.7279 38.4613 22.1803C37.6419 21.6328 37.0032 20.8545 36.626 19.944C36.2488 19.0334 36.1501 18.0315 36.3424 17.0649C36.5347 16.0982 37.0093 15.2103 37.7062 14.5134C38.4031 13.8165 39.291 13.3419 40.2576 13.1496C41.2243 12.9574 42.2262 13.056 43.1368 13.4332C44.0473 13.8104 44.8256 14.4491 45.3731 15.2685C45.9207 16.088 46.2129 17.0514 46.2129 18.037C46.2129 18.6914 46.084 19.3394 45.8336 19.944C45.5832 20.5486 45.2161 21.0979 44.7534 21.5606C44.2907 22.0233 43.7413 22.3904 43.1368 22.6408C42.5322 22.8912 41.8842 23.0201 41.2298 23.0201Z" stroke="white" stroke-width="2.5" stroke-linecap="round" stroke-linejoin="round"></path></svg>