<svg xmlns="http://www.w3.org/2000/svg" width="64" height="64" viewBox="0 0 64 64" fill="none"><path d="M31.9997 60.6667C47.8318 60.6667 60.6663 47.8322 60.6663 32C60.6663 16.1679 47.8318 3.33337 31.9997 3.33337C16.1675 3.33337 3.33301 16.1679 3.33301 32C3.33301 47.8322 16.1675 60.6667 31.9997 60.6667Z" stroke="white" stroke-width="2.5" stroke-linecap="round" stroke-linejoin="round"></path><path d="M35.9202 46.5107V54.8373C35.9202 55.0614 35.8321 55.2764 35.675 55.4361C35.5178 55.5957 35.3042 55.6872 35.0802 55.6907H28.9202C28.6962 55.6872 28.4825 55.5957 28.3254 55.4361C28.1682 55.2764 28.0802 55.0614 28.0802 54.8373V46.5107M32.0002 8.31067C34.6912 8.31067 37.2721 9.37969 39.175 11.2826C41.0778 13.1854 42.1469 15.7663 42.1469 18.4573V31.0173C42.1469 33.7084 41.0778 36.2892 39.175 38.1921C37.2721 40.095 34.6912 41.164 32.0002 41.164C29.3091 41.164 26.7283 40.095 24.8254 38.1921C22.9225 36.2892 21.8535 33.7084 21.8535 31.0173V18.4573C21.8535 15.7663 22.9225 13.1854 24.8254 11.2826C26.7283 9.37969 29.3091 8.31067 32.0002 8.31067Z" stroke="white" stroke-width="2.5" stroke-linecap="round" stroke-linejoin="round"></path><path d="M16.3066 34.0306C17.028 37.662 18.9865 40.9309 21.8482 43.28C24.7098 45.6291 28.2976 46.9131 32 46.9131C35.7023 46.9131 39.2901 45.6291 42.1518 43.28C45.0135 40.9309 46.9719 37.662 47.6933 34.0306" stroke="white" stroke-width="2.5" stroke-linecap="round" stroke-linejoin="round"></path><path d="M32.0004 8.31067V16.9067M35.8231 9.232V16.9067M28.1777 9.32667V16.9067" stroke="white" stroke-width="2.5" stroke-linecap="round"></path><path d="M26.7599 26.0213H30.1253C30.1253 26.0213 30.4999 22.6013 28.4213 22.6013C26.3426 22.6013 26.7599 26.0213 26.7599 26.0213Z" stroke="white" stroke-width="2.5" stroke-linejoin="round"></path><path d="M33.8365 25.5693C33.771 25.3353 33.7526 25.0906 33.7824 24.8495C33.8121 24.6083 33.8894 24.3754 34.0098 24.1644C34.1301 23.9533 34.2911 23.7681 34.4835 23.6197C34.6759 23.4713 34.8958 23.3625 35.1305 23.2996C35.3652 23.2368 35.6101 23.2211 35.8509 23.2535C36.0917 23.2859 36.3237 23.3657 36.5335 23.4884C36.7432 23.6111 36.9265 23.7741 37.0728 23.9681C37.2192 24.1621 37.3255 24.3832 37.3858 24.6186" stroke="white" stroke-width="2.5" stroke-linecap="round" stroke-linejoin="round"></path><path d="M27.373 32.9333C28.513 35.2346 32.169 37.4 34.4504 33.0133C35.2544 31.4666 35.697 30.4546 36.0197 30.4C36.2197 30.3666 36.6277 31.24 36.6277 31.24" stroke="white" stroke-width="2.5" stroke-linecap="round"></path></svg>