<svg xmlns="http://www.w3.org/2000/svg" width="1724" height="184" viewBox="0 0 1724 184" fill="none"><path d="M44.1789 144V7.79999C44.1789 6.46666 44.4456 5.59999 44.9789 5.2C45.5122 4.66666 47.1789 4.33333 49.9789 4.19999C52.7789 4.06666 57.6456 3.99999 64.5789 3.99999V140.2C64.5789 141.533 64.3122 142.467 63.7789 143C63.2456 143.4 61.5122 143.667 58.5789 143.8C55.7789 143.933 50.9789 144 44.1789 144ZM0.378906 144V7.79999C0.378906 6.46666 0.645573 5.59999 1.17891 5.2C1.71224 4.66666 3.37891 4.33333 6.17891 4.19999C8.97891 4.06666 13.8456 3.99999 20.7789 3.99999V140.2C20.7789 141.533 20.5122 142.467 19.9789 143C19.5789 143.4 17.9122 143.667 14.9789 143.8C12.1789 143.933 7.31224 144 0.378906 144ZM10.1789 78.8V59.6H53.1789L53.3789 78.8H10.1789ZM108.504 146C104.771 146 101.171 145.667 97.7039 145C94.3706 144.333 91.3706 143 88.7039 141C86.0372 138.867 83.9039 135.733 82.3039 131.6C80.8372 127.467 80.1039 121.933 80.1039 115C80.1039 108.2 80.7706 102.667 82.1039 98.4C83.4372 94 85.2372 90.6 87.5039 88.2C89.9039 85.8 92.5039 84.2 95.3039 83.4C98.2372 82.6 101.237 82.2 104.304 82.2C105.904 82.2 108.037 82.4 110.704 82.8C113.504 83.0667 115.837 83.8 117.704 85C117.704 85 117.704 84.2 117.704 82.6C117.704 80.8667 117.704 78.9333 117.704 76.8C117.704 74.5333 117.704 72.4667 117.704 70.6C117.704 68.3333 117.371 66.6 116.704 65.4C116.037 64.0667 114.971 63.1333 113.504 62.6C112.171 61.9333 110.304 61.6 107.904 61.6C103.771 61.6 99.3706 62.0667 94.7039 63C90.1706 63.8 86.3039 64.8 83.1039 66C82.0372 64 81.3039 61.9333 80.9039 59.8C80.5039 57.5333 80.3039 55.6667 80.3039 54.2C80.3039 53 80.5039 51.8 80.9039 50.6C81.4372 49.2667 82.1039 48.2667 82.9039 47.6C84.5039 46.5333 87.9706 45.3333 93.3039 44C98.6372 42.6667 105.237 42 113.104 42C122.037 42 128.437 43.8 132.304 47.4C136.171 51 138.104 57.3333 138.104 66.4V76.2C138.104 83.8 138.104 91.5333 138.104 99.4C138.104 107.267 138.037 114.667 137.904 121.6C137.771 128.533 137.504 134.467 137.104 139.4C133.904 141.267 129.837 142.8 124.904 144C120.104 145.333 114.637 146 108.504 146ZM110.104 129.2C111.437 129.2 112.771 129 114.104 128.6C115.571 128.067 116.571 127.467 117.104 126.8C117.237 125.067 117.371 122.6 117.504 119.4C117.637 116.067 117.704 112.6 117.704 109C117.704 105.267 117.704 101.867 117.704 98.8C116.771 98.1333 115.637 97.7333 114.304 97.6C113.104 97.3333 112.037 97.2 111.104 97.2C109.771 97.2 108.504 97.4667 107.304 98C106.104 98.4 105.037 99.2667 104.104 100.6C103.304 101.8 102.637 103.533 102.104 105.8C101.704 108.067 101.504 110.933 101.504 114.4C101.504 117.333 101.637 119.733 101.904 121.6C102.304 123.333 102.837 124.8 103.504 126C104.304 127.2 105.237 128.067 106.304 128.6C107.371 129 108.637 129.2 110.104 129.2ZM157.059 144V47.8C157.059 46.4667 157.325 45.6 157.859 45.2C158.392 44.6667 160.059 44.3333 162.859 44.2C165.659 44.0667 170.525 44 177.459 44V124.8H195.059V47.8C195.059 46.4667 195.325 45.6 195.859 45.2C196.525 44.6667 198.259 44.3333 201.059 44.2C203.992 44.0667 208.792 44 215.459 44V124.8H233.059V47.8C233.059 46.4667 233.325 45.6 233.859 45.2C234.525 44.6667 236.259 44.3333 239.059 44.2C241.992 44.0667 246.792 44 253.459 44V140.2C253.459 141.533 253.259 142.467 252.859 143C252.459 143.4 250.859 143.667 248.059 143.8C245.392 143.933 240.592 144 233.659 144H157.059ZM299.512 146C295.778 146 292.178 145.667 288.712 145C285.378 144.333 282.378 143 279.712 141C277.045 138.867 274.912 135.733 273.312 131.6C271.845 127.467 271.112 121.933 271.112 115C271.112 108.2 271.778 102.667 273.112 98.4C274.445 94 276.245 90.6 278.512 88.2C280.912 85.8 283.512 84.2 286.312 83.4C289.245 82.6 292.245 82.2 295.312 82.2C296.912 82.2 299.045 82.4 301.712 82.8C304.512 83.0667 306.845 83.8 308.712 85C308.712 85 308.712 84.2 308.712 82.6C308.712 80.8667 308.712 78.9333 308.712 76.8C308.712 74.5333 308.712 72.4667 308.712 70.6C308.712 68.3333 308.378 66.6 307.712 65.4C307.045 64.0667 305.978 63.1333 304.512 62.6C303.178 61.9333 301.312 61.6 298.912 61.6C294.778 61.6 290.378 62.0667 285.712 63C281.178 63.8 277.312 64.8 274.112 66C273.045 64 272.312 61.9333 271.912 59.8C271.512 57.5333 271.312 55.6667 271.312 54.2C271.312 53 271.512 51.8 271.912 50.6C272.445 49.2667 273.112 48.2667 273.912 47.6C275.512 46.5333 278.978 45.3333 284.312 44C289.645 42.6667 296.245 42 304.112 42C313.045 42 319.445 43.8 323.312 47.4C327.178 51 329.112 57.3333 329.112 66.4V76.2C329.112 83.8 329.112 91.5333 329.112 99.4C329.112 107.267 329.045 114.667 328.912 121.6C328.778 128.533 328.512 134.467 328.112 139.4C324.912 141.267 320.845 142.8 315.912 144C311.112 145.333 305.645 146 299.512 146ZM301.112 129.2C302.445 129.2 303.778 129 305.112 128.6C306.578 128.067 307.578 127.467 308.112 126.8C308.245 125.067 308.378 122.6 308.512 119.4C308.645 116.067 308.712 112.6 308.712 109C308.712 105.267 308.712 101.867 308.712 98.8C307.778 98.1333 306.645 97.7333 305.312 97.6C304.112 97.3333 303.045 97.2 302.112 97.2C300.778 97.2 299.512 97.4667 298.312 98C297.112 98.4 296.045 99.2667 295.112 100.6C294.312 101.8 293.645 103.533 293.112 105.8C292.712 108.067 292.512 110.933 292.512 114.4C292.512 117.333 292.645 119.733 292.912 121.6C293.312 123.333 293.845 124.8 294.512 126C295.312 127.2 296.245 128.067 297.312 128.6C298.378 129 299.645 129.2 301.112 129.2ZM381.363 144V47.8C381.363 46.4667 381.563 45.6 381.963 45.2C382.497 44.6667 384.23 44.3333 387.163 44.2C390.097 44.0667 395.097 44 402.163 44V85.2H420.163V47.8C420.163 46.4667 420.43 45.6 420.963 45.2C421.63 44.6667 423.43 44.3333 426.363 44.2C429.297 44.0667 434.163 44 440.963 44V140.2C440.963 141.533 440.697 142.467 440.163 143C439.63 143.4 437.963 143.667 435.163 143.8C432.363 143.933 427.363 144 420.163 144V102.6H402.163V140.2C402.163 141.533 401.83 142.467 401.163 143C400.63 143.4 398.963 143.667 396.163 143.8C393.363 143.933 388.43 144 381.363 144ZM491.855 146C487.189 146 482.922 145.333 479.055 144C475.322 142.667 472.055 140.267 469.255 136.8C466.455 133.333 464.255 128.533 462.655 122.4C461.189 116.267 460.455 108.467 460.455 99C460.455 86.7333 461.389 76.8667 463.255 69.4C465.255 61.8 467.855 56.0667 471.055 52.2C474.389 48.2 478.189 45.5333 482.455 44.2C486.722 42.7333 491.189 42 495.855 42C503.855 42 510.055 44.6 514.455 49.8C518.989 54.8667 521.255 63.0667 521.255 74.4C521.255 79.0667 521.055 83.9333 520.655 89C520.389 93.9333 519.722 98.2667 518.655 102C514.522 102.933 509.855 103.6 504.655 104C499.455 104.4 494.389 104.733 489.455 105C484.522 105.133 480.455 105.2 477.255 105.2C474.189 105.2 472.655 105.2 472.655 105.2L473.055 88.8C473.055 88.8 474.055 88.8667 476.055 89C478.189 89 480.789 89 483.855 89C487.055 89 490.122 88.8667 493.055 88.6C496.122 88.2 498.589 87.6667 500.455 87C500.855 85.6667 501.122 83.9333 501.255 81.8C501.389 79.6667 501.455 77.8 501.455 76.2C501.455 69.5333 500.855 65.1333 499.655 63C498.455 60.8667 496.255 59.8 493.055 59.8C491.189 59.8 489.522 60.5333 488.055 62C486.589 63.3333 485.389 65.5333 484.455 68.6C483.522 71.5333 482.789 75.4 482.255 80.2C481.855 85 481.655 90.8667 481.655 97.8C481.655 103 481.855 107.4 482.255 111C482.789 114.6 483.589 117.533 484.655 119.8C485.722 121.933 487.189 123.533 489.055 124.6C491.055 125.667 493.522 126.2 496.455 126.2C500.322 126.2 504.055 125.667 507.655 124.6C511.255 123.533 514.789 122.133 518.255 120.4C518.922 122.267 519.389 124.533 519.655 127.2C519.922 129.733 520.055 132 520.055 134C520.055 136.533 518.722 138.733 516.055 140.6C513.522 142.333 510.122 143.667 505.855 144.6C501.589 145.533 496.922 146 491.855 146ZM566.382 146C558.515 146 552.382 144.8 547.982 142.4C543.715 140 540.715 136.533 538.982 132C537.249 127.333 536.382 121.667 536.382 115V47.8C536.382 46.4667 536.649 45.6 537.182 45.2C537.715 44.6667 539.449 44.3333 542.382 44.2C545.449 44.0667 550.515 44 557.582 44V116.4C557.582 119.067 557.782 121.333 558.182 123.2C558.582 124.933 559.382 126.267 560.582 127.2C561.915 128 563.849 128.4 566.382 128.4C567.849 128.4 569.382 128.2 570.982 127.8C572.715 127.267 574.315 126.467 575.782 125.4V47.8C575.782 46.4667 576.049 45.6 576.582 45.2C577.115 44.6667 578.782 44.3333 581.582 44.2C584.382 44.0667 589.249 44 596.182 44V138.6C592.849 140.467 588.515 142.2 583.182 143.8C577.849 145.267 572.249 146 566.382 146ZM565.182 31.6C560.115 31.6 555.649 30.6667 551.782 28.8C548.049 26.9333 545.049 24.5333 542.782 21.6C540.515 18.6667 539.182 15.4667 538.782 12C538.782 9.33333 539.715 7.13333 541.582 5.4C543.582 3.53333 546.715 2 550.982 0.799996C551.915 4.53333 552.915 7.73333 553.982 10.4C555.049 12.9333 556.515 14.8667 558.382 16.2C560.249 17.4 562.782 18 565.982 18C570.249 18 573.249 16.7333 574.982 14.2C576.715 11.5333 578.315 7.93333 579.782 3.4C580.315 1.79999 581.582 1.33333 583.582 1.99999C585.715 2.53333 587.849 3.73333 589.982 5.59999C592.249 7.33333 593.582 9.13333 593.982 11C592.249 15.1333 590.182 18.8 587.782 22C585.515 25.0667 582.582 27.4667 578.982 29.2C575.515 30.8 570.915 31.6 565.182 31.6ZM616.215 144V46.6C616.215 46.6 616.348 46.2 616.615 45.4C616.882 44.4667 617.815 44 619.415 44H638.415L650.615 82.4C651.282 84.4 651.882 86.2667 652.415 88C652.948 89.7333 653.415 91.2667 653.815 92.6C654.215 93.9333 654.548 95.0667 654.815 96C655.082 96.8 655.215 97.2 655.215 97.2C655.215 96.5333 655.548 94.7333 656.215 91.8C656.882 88.7333 657.882 85.2 659.215 81.2L670.015 46.6C670.415 45.6667 670.815 45 671.215 44.6C671.615 44.2 672.348 44 673.415 44H693.415V141.4C693.415 142.2 693.082 142.8 692.415 143.2C691.882 143.6 690.282 143.867 687.615 144C685.082 144 680.748 144 674.615 144V109.6C674.615 102.133 674.748 95.2 675.015 88.8C675.282 82.2667 675.548 76.4667 675.815 71.4C675.415 72.8667 674.815 75 674.015 77.8C673.215 80.4667 672.348 83.2667 671.415 86.2C670.482 89.1333 669.548 91.8667 668.615 94.4C667.815 96.8 667.215 98.5333 666.815 99.6L659.615 120C659.082 120.533 658.415 120.8 657.615 120.8H649.415L642.015 99.6C641.748 98.6667 641.282 97.2 640.615 95.2C640.082 93.0667 639.415 90.6667 638.615 88C637.815 85.2 636.948 82.4 636.015 79.6C635.215 76.6667 634.415 73.9333 633.615 71.4C633.615 71.4 633.615 71.4667 633.615 71.6C633.615 71.7333 633.615 71.8 633.615 71.8C634.015 76.7333 634.282 82.4 634.415 88.8C634.548 95.0667 634.548 101.8 634.415 109L634.215 141.4C634.215 142.2 633.882 142.8 633.215 143.2C632.548 143.467 630.882 143.667 628.215 143.8C625.682 143.933 621.682 144 616.215 144ZM742.332 146C737.132 146 732.532 145.333 728.532 144C724.532 142.8 721.199 140.4 718.532 136.8C715.999 133.067 714.065 127.8 712.732 121C711.399 114.067 710.732 105 710.732 93.8C710.732 75.6667 713.665 62.5333 719.532 54.4C725.399 46.1333 733.532 42 743.932 42C751.132 42 756.999 43.4667 761.532 46.4C766.199 49.2 769.599 54.3333 771.732 61.8C773.999 69.2667 775.132 79.7333 775.132 93.2C775.132 112.267 772.332 125.867 766.732 134C761.265 142 753.132 146 742.332 146ZM742.932 129C744.799 129 746.465 128.2 747.932 126.6C749.399 125 750.532 121.667 751.332 116.6C752.265 111.533 752.732 103.867 752.732 93.6C752.732 83.7333 752.399 76.3333 751.732 71.4C751.199 66.3333 750.265 63 748.932 61.4C747.599 59.8 745.732 59 743.332 59C741.332 59 739.532 59.8667 737.932 61.6C736.465 63.3333 735.265 66.7333 734.332 71.8C733.532 76.7333 733.132 84.0667 733.132 93.8C733.132 101.667 733.332 108 733.732 112.8C734.265 117.6 734.865 121.133 735.532 123.4C736.332 125.667 737.332 127.2 738.532 128C739.865 128.667 741.332 129 742.932 129ZM790.974 144V47.8C790.974 46.6 791.374 45.6667 792.174 45C792.974 44.3333 794.374 44 796.374 44H814.574C819.908 44 824.974 44.6 829.774 45.8C834.574 47 838.508 49.2667 841.574 52.6C844.774 55.8 846.374 60.6 846.374 67C846.374 71.4 845.774 75.1333 844.574 78.2C843.374 81.1333 841.841 83.5333 839.974 85.4C838.108 87.1333 836.174 88.4667 834.174 89.4C832.308 90.3333 830.641 90.8667 829.174 91C830.241 91.1333 831.308 91.2667 832.374 91.4C833.441 91.4 834.241 91.5333 834.774 91.8C835.574 91.9333 836.774 92.2667 838.374 92.8C839.974 93.3333 841.708 94.3333 843.574 95.8C845.574 97.1333 847.241 99.1333 848.574 101.8C849.908 104.333 850.574 107.733 850.574 112C850.574 117.733 849.374 123.067 846.974 128C844.574 132.8 840.774 136.667 835.574 139.6C830.508 142.533 823.841 144 815.574 144H790.974ZM815.774 127.6C819.508 127.6 822.374 126.267 824.374 123.6C826.508 120.8 827.574 116.333 827.574 110.2C827.574 107.133 827.174 104.8 826.374 103.2C825.574 101.467 824.374 100.333 822.774 99.8C821.174 99.1333 819.108 98.8 816.574 98.8C814.974 98.8 813.641 98.8667 812.574 99C811.508 99 810.774 99 810.374 99V127.4C811.174 127.533 812.041 127.6 812.974 127.6C814.041 127.6 814.974 127.6 815.774 127.6ZM810.374 85.2C811.174 85.3333 811.974 85.4 812.774 85.4C813.708 85.4 814.641 85.4 815.574 85.4C817.174 85.4 818.708 84.9333 820.174 84C821.641 82.9333 822.841 81.3333 823.774 79.2C824.708 77.0667 825.174 74.3333 825.174 71C825.174 68.3333 824.908 66.2667 824.374 64.8C823.841 63.3333 823.108 62.2667 822.174 61.6C821.374 60.8 820.374 60.2667 819.174 60C818.108 59.7333 817.041 59.6 815.974 59.6C815.041 59.6 814.108 59.6667 813.174 59.8C812.374 59.8 811.708 59.8667 811.174 60C810.641 60 810.374 60 810.374 60V85.2ZM866.654 144V53C866.654 49.9333 867.254 47.8 868.454 46.6C869.654 45.4 871.721 44.6667 874.654 44.4C877.587 44.1333 881.854 44 887.454 44V140.2C887.454 141.533 887.121 142.467 886.454 143C885.921 143.4 884.187 143.667 881.254 143.8C878.454 143.933 873.587 144 866.654 144ZM876.654 33.4C873.454 33.4 870.987 32.3333 869.254 30.2C867.521 28.0667 866.654 24.1333 866.654 18.4C866.654 14.1333 867.521 10.6667 869.254 8C871.121 5.33333 873.987 3.99999 877.854 3.99999C881.721 3.99999 884.321 4.99999 885.654 6.99999C886.987 8.99999 887.654 12.5333 887.654 17.6C887.654 22.5333 886.654 26.4 884.654 29.2C882.787 32 880.121 33.4 876.654 33.4ZM916.001 183.4C912.534 183.4 910.001 182.8 908.401 181.6C906.934 180.4 906.201 178.067 906.201 174.6V49.8C910.201 47.4 914.734 45.5333 919.801 44.2C925.001 42.7333 930.334 42 935.801 42C942.201 42 947.801 43.1333 952.601 45.4C957.401 47.6667 961.134 51.7333 963.801 57.6C966.601 63.4667 968.001 71.8667 968.001 82.8C968.001 93.6 967.534 102.733 966.601 110.2C965.667 117.533 964.334 123.6 962.601 128.4C960.867 133.067 958.801 136.667 956.401 139.2C954.134 141.733 951.667 143.467 949.001 144.4C946.334 145.467 943.534 146 940.601 146C937.534 146 934.801 145.6 932.401 144.8C930.134 144.133 928.201 143.067 926.601 141.6V181.8C925.001 182.2 923.267 182.533 921.401 182.8C919.534 183.2 917.734 183.4 916.001 183.4ZM933.801 128C935.134 128 936.401 127.533 937.601 126.6C938.934 125.667 940.201 123.8 941.401 121C942.601 118.067 943.534 113.667 944.201 107.8C944.867 101.933 945.201 94.1333 945.201 84.4C945.201 77.4667 944.801 72.2667 944.001 68.8C943.334 65.2 942.201 62.8 940.601 61.6C939.134 60.2667 937.134 59.6 934.601 59.6C931.667 59.6 929.001 60.5333 926.601 62.4V123.4C927.667 125 928.801 126.2 930.001 127C931.201 127.667 932.467 128 933.801 128ZM985.434 144V47.8C985.434 46.4667 985.634 45.6 986.034 45.2C986.567 44.6667 988.3 44.3333 991.234 44.2C994.167 44.0667 999.167 44 1006.23 44V85.2H1024.23V47.8C1024.23 46.4667 1024.5 45.6 1025.03 45.2C1025.7 44.6667 1027.5 44.3333 1030.43 44.2C1033.37 44.0667 1038.23 44 1045.03 44V140.2C1045.03 141.533 1044.77 142.467 1044.23 143C1043.7 143.4 1042.03 143.667 1039.23 143.8C1036.43 143.933 1031.43 144 1024.23 144V102.6H1006.23V140.2C1006.23 141.533 1005.9 142.467 1005.23 143C1004.7 143.4 1003.03 143.667 1000.23 143.8C997.434 143.933 992.5 144 985.434 144ZM1090.97 146C1087.24 146 1083.64 145.667 1080.17 145C1076.84 144.333 1073.84 143 1071.17 141C1068.51 138.867 1066.37 135.733 1064.77 131.6C1063.31 127.467 1062.57 121.933 1062.57 115C1062.57 108.2 1063.24 102.667 1064.57 98.4C1065.91 94 1067.71 90.6 1069.97 88.2C1072.37 85.8 1074.97 84.2 1077.77 83.4C1080.71 82.6 1083.71 82.2 1086.77 82.2C1088.37 82.2 1090.51 82.4 1093.17 82.8C1095.97 83.0667 1098.31 83.8 1100.17 85C1100.17 85 1100.17 84.2 1100.17 82.6C1100.17 80.8667 1100.17 78.9333 1100.17 76.8C1100.17 74.5333 1100.17 72.4667 1100.17 70.6C1100.17 68.3333 1099.84 66.6 1099.17 65.4C1098.51 64.0667 1097.44 63.1333 1095.97 62.6C1094.64 61.9333 1092.77 61.6 1090.37 61.6C1086.24 61.6 1081.84 62.0667 1077.17 63C1072.64 63.8 1068.77 64.8 1065.57 66C1064.51 64 1063.77 61.9333 1063.37 59.8C1062.97 57.5333 1062.77 55.6667 1062.77 54.2C1062.77 53 1062.97 51.8 1063.37 50.6C1063.91 49.2667 1064.57 48.2667 1065.37 47.6C1066.97 46.5333 1070.44 45.3333 1075.77 44C1081.11 42.6667 1087.71 42 1095.57 42C1104.51 42 1110.91 43.8 1114.77 47.4C1118.64 51 1120.57 57.3333 1120.57 66.4V76.2C1120.57 83.8 1120.57 91.5333 1120.57 99.4C1120.57 107.267 1120.51 114.667 1120.37 121.6C1120.24 128.533 1119.97 134.467 1119.57 139.4C1116.37 141.267 1112.31 142.8 1107.37 144C1102.57 145.333 1097.11 146 1090.97 146ZM1092.57 129.2C1093.91 129.2 1095.24 129 1096.57 128.6C1098.04 128.067 1099.04 127.467 1099.57 126.8C1099.71 125.067 1099.84 122.6 1099.97 119.4C1100.11 116.067 1100.17 112.6 1100.17 109C1100.17 105.267 1100.17 101.867 1100.17 98.8C1099.24 98.1333 1098.11 97.7333 1096.77 97.6C1095.57 97.3333 1094.51 97.2 1093.57 97.2C1092.24 97.2 1090.97 97.4667 1089.77 98C1088.57 98.4 1087.51 99.2667 1086.57 100.6C1085.77 101.8 1085.11 103.533 1084.57 105.8C1084.17 108.067 1083.97 110.933 1083.97 114.4C1083.97 117.333 1084.11 119.733 1084.37 121.6C1084.77 123.333 1085.31 124.8 1085.97 126C1086.77 127.2 1087.71 128.067 1088.77 128.6C1089.84 129 1091.11 129.2 1092.57 129.2ZM1223.22 144.4C1221.09 144.4 1218.96 144.333 1216.82 144.2C1214.69 144.067 1212.42 143.933 1210.02 143.8L1207.42 117.4C1206.76 110.2 1205.62 105.4 1204.02 103C1202.42 100.467 1199.42 99.2 1195.02 99.2H1192.82V140.6C1192.82 141.8 1192.56 142.667 1192.02 143.2C1191.49 143.6 1189.82 143.867 1187.02 144C1184.22 144 1179.49 144 1172.82 144V47.4C1172.82 46.2 1173.09 45.4 1173.62 45C1174.16 44.6 1175.82 44.3333 1178.62 44.2C1181.42 44.0667 1186.16 44 1192.82 44V81.4H1195.82C1198.22 81.4 1200.22 80.7333 1201.82 79.4C1203.56 77.9333 1204.76 75.4667 1205.42 72L1211.42 45C1213.82 44.4667 1216.09 44.1333 1218.22 44C1220.36 43.7333 1222.22 43.6 1223.82 43.6C1227.42 43.6 1229.76 43.9333 1230.82 44.6C1231.89 45.1333 1232.09 46.3333 1231.42 48.2L1223.82 75C1222.89 78.4667 1221.56 81.3333 1219.82 83.6C1218.09 85.7333 1216.22 87.3333 1214.22 88.4C1218.09 90.4 1221.22 93.7333 1223.62 98.4C1226.02 103.067 1227.56 108.733 1228.22 115.4L1231.22 140.6C1231.22 142.067 1230.76 143.067 1229.82 143.6C1228.89 144.133 1226.69 144.4 1223.22 144.4ZM1274.14 146C1268.94 146 1264.34 145.333 1260.34 144C1256.34 142.8 1253 140.4 1250.34 136.8C1247.8 133.067 1245.87 127.8 1244.54 121C1243.2 114.067 1242.54 105 1242.54 93.8C1242.54 75.6667 1245.47 62.5333 1251.34 54.4C1257.2 46.1333 1265.34 42 1275.74 42C1282.94 42 1288.8 43.4667 1293.34 46.4C1298 49.2 1301.4 54.3333 1303.54 61.8C1305.8 69.2667 1306.94 79.7333 1306.94 93.2C1306.94 112.267 1304.14 125.867 1298.54 134C1293.07 142 1284.94 146 1274.14 146ZM1274.74 129C1276.6 129 1278.27 128.2 1279.74 126.6C1281.2 125 1282.34 121.667 1283.14 116.6C1284.07 111.533 1284.54 103.867 1284.54 93.6C1284.54 83.7333 1284.2 76.3333 1283.54 71.4C1283 66.3333 1282.07 63 1280.74 61.4C1279.4 59.8 1277.54 59 1275.14 59C1273.14 59 1271.34 59.8667 1269.74 61.6C1268.27 63.3333 1267.07 66.7333 1266.14 71.8C1265.34 76.7333 1264.94 84.0667 1264.94 93.8C1264.94 101.667 1265.14 108 1265.54 112.8C1266.07 117.6 1266.67 121.133 1267.34 123.4C1268.14 125.667 1269.14 127.2 1270.34 128C1271.67 128.667 1273.14 129 1274.74 129ZM1324.38 144V46.6C1324.38 46.6 1324.51 46.2 1324.78 45.4C1325.05 44.4667 1325.98 44 1327.58 44H1346.58L1358.78 82.4C1359.45 84.4 1360.05 86.2667 1360.58 88C1361.11 89.7333 1361.58 91.2667 1361.98 92.6C1362.38 93.9333 1362.71 95.0667 1362.98 96C1363.25 96.8 1363.38 97.2 1363.38 97.2C1363.38 96.5333 1363.71 94.7333 1364.38 91.8C1365.05 88.7333 1366.05 85.2 1367.38 81.2L1378.18 46.6C1378.58 45.6667 1378.98 45 1379.38 44.6C1379.78 44.2 1380.51 44 1381.58 44H1401.58V141.4C1401.58 142.2 1401.25 142.8 1400.58 143.2C1400.05 143.6 1398.45 143.867 1395.78 144C1393.25 144 1388.91 144 1382.78 144V109.6C1382.78 102.133 1382.91 95.2 1383.18 88.8C1383.45 82.2667 1383.71 76.4667 1383.98 71.4C1383.58 72.8667 1382.98 75 1382.18 77.8C1381.38 80.4667 1380.51 83.2667 1379.58 86.2C1378.65 89.1333 1377.71 91.8667 1376.78 94.4C1375.98 96.8 1375.38 98.5333 1374.98 99.6L1367.78 120C1367.25 120.533 1366.58 120.8 1365.78 120.8H1357.58L1350.18 99.6C1349.91 98.6667 1349.45 97.2 1348.78 95.2C1348.25 93.0667 1347.58 90.6667 1346.78 88C1345.98 85.2 1345.11 82.4 1344.18 79.6C1343.38 76.6667 1342.58 73.9333 1341.78 71.4C1341.78 71.4 1341.78 71.4667 1341.78 71.6C1341.78 71.7333 1341.78 71.8 1341.78 71.8C1342.18 76.7333 1342.45 82.4 1342.58 88.8C1342.71 95.0667 1342.71 101.8 1342.58 109L1342.38 141.4C1342.38 142.2 1342.05 142.8 1341.38 143.2C1340.71 143.467 1339.05 143.667 1336.38 143.8C1333.85 143.933 1329.85 144 1324.38 144ZM1447.5 146C1443.76 146 1440.16 145.667 1436.7 145C1433.36 144.333 1430.36 143 1427.7 141C1425.03 138.867 1422.9 135.733 1421.3 131.6C1419.83 127.467 1419.1 121.933 1419.1 115C1419.1 108.2 1419.76 102.667 1421.1 98.4C1422.43 94 1424.23 90.6 1426.5 88.2C1428.9 85.8 1431.5 84.2 1434.3 83.4C1437.23 82.6 1440.23 82.2 1443.3 82.2C1444.9 82.2 1447.03 82.4 1449.7 82.8C1452.5 83.0667 1454.83 83.8 1456.7 85C1456.7 85 1456.7 84.2 1456.7 82.6C1456.7 80.8667 1456.7 78.9333 1456.7 76.8C1456.7 74.5333 1456.7 72.4667 1456.7 70.6C1456.7 68.3333 1456.36 66.6 1455.7 65.4C1455.03 64.0667 1453.96 63.1333 1452.5 62.6C1451.16 61.9333 1449.3 61.6 1446.9 61.6C1442.76 61.6 1438.36 62.0667 1433.7 63C1429.16 63.8 1425.3 64.8 1422.1 66C1421.03 64 1420.3 61.9333 1419.9 59.8C1419.5 57.5333 1419.3 55.6667 1419.3 54.2C1419.3 53 1419.5 51.8 1419.9 50.6C1420.43 49.2667 1421.1 48.2667 1421.9 47.6C1423.5 46.5333 1426.96 45.3333 1432.3 44C1437.63 42.6667 1444.23 42 1452.1 42C1461.03 42 1467.43 43.8 1471.3 47.4C1475.16 51 1477.1 57.3333 1477.1 66.4V76.2C1477.1 83.8 1477.1 91.5333 1477.1 99.4C1477.1 107.267 1477.03 114.667 1476.9 121.6C1476.76 128.533 1476.5 134.467 1476.1 139.4C1472.9 141.267 1468.83 142.8 1463.9 144C1459.1 145.333 1453.63 146 1447.5 146ZM1449.1 129.2C1450.43 129.2 1451.76 129 1453.1 128.6C1454.56 128.067 1455.56 127.467 1456.1 126.8C1456.23 125.067 1456.36 122.6 1456.5 119.4C1456.63 116.067 1456.7 112.6 1456.7 109C1456.7 105.267 1456.7 101.867 1456.7 98.8C1455.76 98.1333 1454.63 97.7333 1453.3 97.6C1452.1 97.3333 1451.03 97.2 1450.1 97.2C1448.76 97.2 1447.5 97.4667 1446.3 98C1445.1 98.4 1444.03 99.2667 1443.1 100.6C1442.3 101.8 1441.63 103.533 1441.1 105.8C1440.7 108.067 1440.5 110.933 1440.5 114.4C1440.5 117.333 1440.63 119.733 1440.9 121.6C1441.3 123.333 1441.83 124.8 1442.5 126C1443.3 127.2 1444.23 128.067 1445.3 128.6C1446.36 129 1447.63 129.2 1449.1 129.2ZM1496.05 144V47.8C1496.05 46.4667 1496.25 45.6 1496.65 45.2C1497.18 44.6667 1498.92 44.3333 1501.85 44.2C1504.78 44.0667 1509.78 44 1516.85 44V85.2H1534.85V47.8C1534.85 46.4667 1535.12 45.6 1535.65 45.2C1536.32 44.6667 1538.12 44.3333 1541.05 44.2C1543.98 44.0667 1548.85 44 1555.65 44V140.2C1555.65 141.533 1555.38 142.467 1554.85 143C1554.32 143.4 1552.65 143.667 1549.85 143.8C1547.05 143.933 1542.05 144 1534.85 144V102.6H1516.85V140.2C1516.85 141.533 1516.52 142.467 1515.85 143C1515.32 143.4 1513.65 143.667 1510.85 143.8C1508.05 143.933 1503.12 144 1496.05 144ZM1586.39 175.4C1581.46 175.4 1578.19 175.067 1576.59 174.4C1574.99 173.733 1574.19 172.133 1574.19 169.6V124.8H1581.79C1582.99 123.2 1584.06 121.067 1584.99 118.4C1585.92 115.6 1586.79 112.2 1587.59 108.2C1588.39 104.2 1589.12 99.4667 1589.79 94C1590.46 88.4 1590.99 82 1591.39 74.8C1591.92 67.6 1592.39 59.3333 1592.79 50C1592.92 47.2 1593.52 45.5333 1594.59 45C1595.66 44.3333 1598.59 44 1603.39 44H1643.79V124.8H1653.79V169.6C1653.79 172.133 1652.99 173.733 1651.39 174.4C1649.79 175.067 1646.46 175.4 1641.39 175.4C1640.19 169.933 1639.06 164.733 1637.99 159.8C1636.92 154.867 1636.19 149.6 1635.79 144H1592.19C1591.79 149.6 1591.06 154.867 1589.99 159.8C1589.06 164.733 1587.86 169.933 1586.39 175.4ZM1601.39 124.8H1623.39V61H1610.99C1610.32 74.3333 1609.52 85.1333 1608.59 93.4C1607.79 101.533 1606.79 108 1605.59 112.8C1604.39 117.6 1602.99 121.6 1601.39 124.8ZM1694.07 146C1690.33 146 1686.73 145.667 1683.27 145C1679.93 144.333 1676.93 143 1674.27 141C1671.6 138.867 1669.47 135.733 1667.87 131.6C1666.4 127.467 1665.67 121.933 1665.67 115C1665.67 108.2 1666.33 102.667 1667.67 98.4C1669 94 1670.8 90.6 1673.07 88.2C1675.47 85.8 1678.07 84.2 1680.87 83.4C1683.8 82.6 1686.8 82.2 1689.87 82.2C1691.47 82.2 1693.6 82.4 1696.27 82.8C1699.07 83.0667 1701.4 83.8 1703.27 85C1703.27 85 1703.27 84.2 1703.27 82.6C1703.27 80.8667 1703.27 78.9333 1703.27 76.8C1703.27 74.5333 1703.27 72.4667 1703.27 70.6C1703.27 68.3333 1702.93 66.6 1702.27 65.4C1701.6 64.0667 1700.53 63.1333 1699.07 62.6C1697.73 61.9333 1695.87 61.6 1693.47 61.6C1689.33 61.6 1684.93 62.0667 1680.27 63C1675.73 63.8 1671.87 64.8 1668.67 66C1667.6 64 1666.87 61.9333 1666.47 59.8C1666.07 57.5333 1665.87 55.6667 1665.87 54.2C1665.87 53 1666.07 51.8 1666.47 50.6C1667 49.2667 1667.67 48.2667 1668.47 47.6C1670.07 46.5333 1673.53 45.3333 1678.87 44C1684.2 42.6667 1690.8 42 1698.67 42C1707.6 42 1714 43.8 1717.87 47.4C1721.73 51 1723.67 57.3333 1723.67 66.4V76.2C1723.67 83.8 1723.67 91.5333 1723.67 99.4C1723.67 107.267 1723.6 114.667 1723.47 121.6C1723.33 128.533 1723.07 134.467 1722.67 139.4C1719.47 141.267 1715.4 142.8 1710.47 144C1705.67 145.333 1700.2 146 1694.07 146ZM1695.67 129.2C1697 129.2 1698.33 129 1699.67 128.6C1701.13 128.067 1702.13 127.467 1702.67 126.8C1702.8 125.067 1702.93 122.6 1703.07 119.4C1703.2 116.067 1703.27 112.6 1703.27 109C1703.27 105.267 1703.27 101.867 1703.27 98.8C1702.33 98.1333 1701.2 97.7333 1699.87 97.6C1698.67 97.3333 1697.6 97.2 1696.67 97.2C1695.33 97.2 1694.07 97.4667 1692.87 98C1691.67 98.4 1690.6 99.2667 1689.67 100.6C1688.87 101.8 1688.2 103.533 1687.67 105.8C1687.27 108.067 1687.07 110.933 1687.07 114.4C1687.07 117.333 1687.2 119.733 1687.47 121.6C1687.87 123.333 1688.4 124.8 1689.07 126C1689.87 127.2 1690.8 128.067 1691.87 128.6C1692.93 129 1694.2 129.2 1695.67 129.2Z" fill="#60495D"></path></svg>