<svg xmlns="http://www.w3.org/2000/svg" width="74" height="74" viewBox="0 0 74 74" fill="none"><path d="M18.5 67.8333V42.2231C18.5 37.3977 18.5 34.9835 19.1629 32.708C19.8228 30.4294 21.1054 28.4221 23.68 24.4045L31.8693 11.6087C34.188 7.97654 35.3504 6.16663 37 6.16663C38.6496 6.16663 39.812 7.97963 42.1307 11.6056L50.32 24.4045C52.8915 28.4221 54.1742 30.4294 54.8371 32.708C55.5 34.9835 55.5 37.3946 55.5 42.2231V67.8333" stroke="white" stroke-width="2.5" stroke-linecap="round" stroke-linejoin="round"></path><path d="M21.583 33.9166C23.5317 34.9125 26.1741 36.9167 28.613 37C31.7549 37.0986 33.8763 34.339 36.9997 34.339C40.1231 34.339 42.2444 37.0986 45.3863 36.9969C47.8253 36.9167 50.4708 34.9125 52.4163 33.9166M36.9997 37V67.8333M30.833 15.4166H43.1663" stroke="white" stroke-width="2.5" stroke-linecap="round" stroke-linejoin="round"></path></svg>