<svg xmlns="http://www.w3.org/2000/svg" width="160" height="90" viewBox="0 0 160 90" fill="none"><path d="M45.9337 50.9534C44.5992 50.9534 43.4839 50.6755 42.5878 50.1197C41.7108 49.5639 41.0435 48.7951 40.586 47.8131C40.1284 46.8312 39.8615 45.6918 39.7852 44.3949L42.645 43.6446C42.7022 44.4412 42.8261 45.2101 43.0168 45.9512C43.2265 46.6923 43.5601 47.3036 44.0177 47.7853C44.4752 48.2485 45.1139 48.4801 45.9337 48.4801C46.7726 48.4801 47.4017 48.2578 47.8212 47.8131C48.2597 47.35 48.4789 46.6923 48.4789 45.84C48.4789 44.821 48.2406 44.0059 47.764 43.3945C47.2874 42.7646 46.6868 42.1347 45.9623 41.5047L42.073 38.1699C41.3104 37.5215 40.748 36.8174 40.3858 36.0578C40.0235 35.2797 39.8424 34.3256 39.8424 33.1954C39.8424 31.5465 40.3286 30.2682 41.3009 29.3604C42.2732 28.4526 43.5982 27.9987 45.276 27.9987C46.1911 27.9987 46.9918 28.1191 47.6782 28.3599C48.3836 28.5823 48.9651 28.9343 49.4227 29.416C49.8993 29.8977 50.2711 30.509 50.538 31.2501C50.8239 31.9727 51.0146 32.8249 51.1099 33.8068L48.3645 34.5294C48.3073 33.7883 48.193 33.1121 48.0214 32.5007C47.8498 31.8708 47.5447 31.3705 47.1062 31C46.6868 30.6109 46.0767 30.4164 45.276 30.4164C44.4752 30.4164 43.8461 30.6295 43.3885 31.0556C42.95 31.4632 42.7308 32.0746 42.7308 32.8897C42.7308 33.5752 42.8452 34.1403 43.074 34.585C43.3218 35.0296 43.7126 35.4835 44.2465 35.9467L48.1644 39.2815C49.0414 40.0226 49.8135 40.9119 50.4808 41.9494C51.1481 42.9684 51.4817 44.1819 51.4817 45.5899C51.4817 46.7015 51.2434 47.6649 50.7668 48.4801C50.2901 49.2768 49.6324 49.8881 48.7935 50.3143C47.9737 50.7404 47.0204 50.9534 45.9337 50.9534Z" fill="#60495D"></path><path d="M58.3067 50.9256C57.0103 50.9256 56.0094 50.6848 55.304 50.2031C54.5985 49.7029 54.1029 48.9803 53.8169 48.0354C53.55 47.0721 53.4165 45.8956 53.4165 44.5061V40.8378C53.4165 39.4112 53.5595 38.2255 53.8455 37.2806C54.1315 36.3357 54.6271 35.6225 55.3326 35.1408C56.057 34.6591 57.0484 34.4182 58.3067 34.4182C59.6985 34.4182 60.7185 34.6961 61.3667 35.2519C62.034 35.8077 62.4725 36.6136 62.6822 37.6697C62.8919 38.7072 62.9968 39.9577 62.9968 41.4214V42.7275H56.4765V45.9512C56.4765 46.5996 56.5337 47.1276 56.648 47.5352C56.7815 47.9428 56.9817 48.2485 57.2486 48.4523C57.5346 48.6376 57.8968 48.7302 58.3353 48.7302C58.7929 48.7302 59.1361 48.6283 59.3648 48.4245C59.6127 48.2022 59.7747 47.8965 59.851 47.5074C59.9463 47.0999 59.994 46.6274 59.994 46.0901V45.1175H62.9681V45.7289C62.9681 47.3407 62.6154 48.6098 61.91 49.5361C61.2046 50.4625 60.0035 50.9256 58.3067 50.9256ZM56.4765 41.1157H59.994V39.6706C59.994 39.0036 59.9559 38.4478 59.8796 38.0032C59.8033 37.54 59.6413 37.1972 59.3934 36.9749C59.1646 36.7341 58.7929 36.6136 58.2781 36.6136C57.7824 36.6136 57.4011 36.7248 57.1342 36.9471C56.8864 37.1695 56.7148 37.5492 56.6195 38.0865C56.5241 38.6053 56.4765 39.3278 56.4765 40.2542V41.1157Z" fill="#60495D"></path><path d="M67.9127 50.7033L64.6525 34.6405H67.7411L69.7715 47.563L71.8305 34.6405H74.8047L71.659 50.7033H67.9127Z" fill="#60495D"></path><path d="M81.3469 50.9256C80.0505 50.9256 79.0495 50.6848 78.3441 50.2031C77.6387 49.7029 77.143 48.9803 76.857 48.0354C76.5901 47.0721 76.4567 45.8956 76.4567 44.5061V40.8378C76.4567 39.4112 76.5997 38.2255 76.8856 37.2806C77.1716 36.3357 77.6673 35.6225 78.3727 35.1408C79.0972 34.6591 80.0886 34.4182 81.3469 34.4182C82.7386 34.4182 83.7586 34.6961 84.4068 35.2519C85.0741 35.8077 85.5126 36.6136 85.7223 37.6697C85.9321 38.7072 86.0369 39.9577 86.0369 41.4214V42.7275H79.5166V45.9512C79.5166 46.5996 79.5738 47.1276 79.6882 47.5352C79.8217 47.9428 80.0219 48.2485 80.2888 48.4523C80.5747 48.6376 80.937 48.7302 81.3755 48.7302C81.833 48.7302 82.1762 48.6283 82.405 48.4245C82.6529 48.2022 82.8149 47.8965 82.8912 47.5074C82.9865 47.0999 83.0342 46.6274 83.0342 46.0901V45.1175H86.0083V45.7289C86.0083 47.3407 85.6556 48.6098 84.9502 49.5361C84.2448 50.4625 83.0437 50.9256 81.3469 50.9256ZM79.5166 41.1157H83.0342V39.6706C83.0342 39.0036 82.996 38.4478 82.9198 38.0032C82.8435 37.54 82.6815 37.1972 82.4336 36.9749C82.2048 36.7341 81.833 36.6136 81.3183 36.6136C80.8226 36.6136 80.4413 36.7248 80.1744 36.9471C79.9265 37.1695 79.7549 37.5492 79.6596 38.0865C79.5643 38.6053 79.5166 39.3278 79.5166 40.2542V41.1157Z" fill="#60495D"></path><path d="M88.808 50.7033V34.6405H91.868V36.2246C92.4208 35.7244 93.0309 35.2982 93.6982 34.9462C94.3655 34.5942 95.0995 34.4182 95.9002 34.4182C96.5675 34.4182 97.0727 34.585 97.4159 34.9184C97.7781 35.2519 98.026 35.6688 98.1594 36.169C98.312 36.6692 98.3882 37.1787 98.3882 37.6975V50.7033H95.3283V38.559C95.3283 37.9846 95.2425 37.54 95.0709 37.225C94.8993 36.9101 94.5466 36.7526 94.0128 36.7526C93.6696 36.7526 93.3074 36.8545 92.9261 37.0583C92.5638 37.2436 92.2111 37.4751 91.868 37.753V50.7033H88.808Z" fill="#60495D"></path><path d="M113.63 50.9534C112.295 50.9534 111.18 50.6755 110.284 50.1197C109.407 49.5639 108.74 48.7951 108.282 47.8131C107.825 46.8312 107.558 45.6918 107.481 44.3949L110.341 43.6446C110.398 44.4412 110.522 45.2101 110.713 45.9512C110.923 46.6923 111.256 47.3036 111.714 47.7853C112.171 48.2485 112.81 48.4801 113.63 48.4801C114.469 48.4801 115.098 48.2578 115.517 47.8131C115.956 47.35 116.175 46.6923 116.175 45.84C116.175 44.821 115.937 44.0059 115.46 43.3945C114.984 42.7646 114.383 42.1347 113.659 41.5047L109.769 38.1699C109.007 37.5215 108.444 36.8174 108.082 36.0578C107.72 35.2797 107.539 34.3256 107.539 33.1954C107.539 31.5465 108.025 30.2682 108.997 29.3604C109.969 28.4526 111.294 27.9987 112.972 27.9987C113.887 27.9987 114.688 28.1191 115.374 28.3599C116.08 28.5823 116.661 28.9343 117.119 29.416C117.595 29.8977 117.967 30.509 118.234 31.2501C118.52 31.9727 118.711 32.8249 118.806 33.8068L116.061 34.5294C116.004 33.7883 115.889 33.1121 115.718 32.5007C115.546 31.8708 115.241 31.3705 114.802 31C114.383 30.6109 113.773 30.4164 112.972 30.4164C112.171 30.4164 111.542 30.6295 111.085 31.0556C110.646 31.4632 110.427 32.0746 110.427 32.8897C110.427 33.5752 110.541 34.1403 110.77 34.585C111.018 35.0296 111.409 35.4835 111.943 35.9467L115.861 39.2815C116.738 40.0226 117.51 40.9119 118.177 41.9494C118.844 42.9684 119.178 44.1819 119.178 45.5899C119.178 46.7015 118.94 47.6649 118.463 48.4801C117.986 49.2768 117.329 49.8881 116.49 50.3143C115.67 50.7404 114.717 50.9534 113.63 50.9534Z" fill="#60495D"></path><path d="M125.831 50.9256C124.973 50.9256 124.278 50.7682 123.744 50.4532C123.229 50.1383 122.848 49.6936 122.6 49.1193C122.371 48.5449 122.257 47.8687 122.257 47.0906V36.6136H120.512V34.6405H122.257V29.944H125.317V34.6405H127.976V36.6136H125.317V46.8961C125.317 47.526 125.421 47.9799 125.631 48.2578C125.841 48.5172 126.241 48.6468 126.832 48.6468C126.985 48.6468 127.156 48.6376 127.347 48.6191C127.557 48.6005 127.757 48.582 127.948 48.5635V50.7589C127.566 50.8145 127.214 50.8515 126.889 50.8701C126.565 50.9071 126.213 50.9256 125.831 50.9256Z" fill="#60495D"></path><path d="M133.199 50.9256C132.55 50.9256 131.978 50.7496 131.483 50.3976C130.987 50.0271 130.596 49.5639 130.31 49.0081C130.024 48.4338 129.881 47.8317 129.881 47.2017C129.881 46.2013 130.053 45.3583 130.396 44.6728C130.739 43.9873 131.206 43.413 131.797 42.9498C132.407 42.4681 133.103 42.0513 133.885 41.6993C134.686 41.3473 135.525 41.0045 136.402 40.671V39.5316C136.402 38.8832 136.363 38.3459 136.287 37.9198C136.211 37.4937 136.049 37.1787 135.801 36.9749C135.572 36.7526 135.22 36.6414 134.743 36.6414C134.323 36.6414 133.98 36.7341 133.713 36.9193C133.466 37.1046 133.284 37.3732 133.17 37.7253C133.056 38.0587 132.998 38.4571 132.998 38.9202V39.7262L129.967 39.615C130.005 37.8364 130.425 36.5303 131.225 35.6966C132.026 34.8443 133.265 34.4182 134.943 34.4182C136.583 34.4182 137.746 34.8536 138.432 35.7244C139.118 36.5951 139.462 37.8549 139.462 39.5038V46.8405C139.462 47.3407 139.471 47.8224 139.49 48.2856C139.528 48.7487 139.566 49.1841 139.604 49.5917C139.662 49.9808 139.709 50.3513 139.747 50.7033H136.945C136.888 50.4069 136.811 50.0364 136.716 49.5917C136.64 49.1285 136.583 48.7117 136.545 48.3411C136.354 48.9711 135.982 49.5639 135.429 50.1197C134.895 50.657 134.152 50.9256 133.199 50.9256ZM134.4 48.3689C134.705 48.3689 134.991 48.2856 135.258 48.1188C135.525 47.9521 135.763 47.7668 135.973 47.563C136.182 47.3407 136.325 47.1647 136.402 47.035V42.4774C135.925 42.7368 135.477 42.9961 135.057 43.2555C134.638 43.5149 134.266 43.7928 133.942 44.0892C133.637 44.3671 133.389 44.6914 133.199 45.0619C133.027 45.4139 132.941 45.8215 132.941 46.2847C132.941 46.9331 133.065 47.4426 133.313 47.8131C133.561 48.1837 133.923 48.3689 134.4 48.3689Z" fill="#60495D"></path><path d="M142.487 50.7033V34.6405H145.547V36.9193C146.157 35.9374 146.767 35.2797 147.377 34.9462C147.987 34.6127 148.597 34.446 149.207 34.446C149.283 34.446 149.35 34.446 149.407 34.446C149.484 34.446 149.579 34.4553 149.693 34.4738V37.753C149.464 37.6604 149.198 37.5863 148.892 37.5307C148.607 37.4566 148.311 37.4196 148.006 37.4196C147.529 37.4196 147.091 37.5307 146.69 37.753C146.309 37.9568 145.928 38.3644 145.547 38.9758V50.7033H142.487Z" fill="#60495D"></path><path d="M155.421 50.9256C154.067 50.9256 152.981 50.5181 152.161 49.7029C151.341 48.8692 150.874 47.7761 150.76 46.4236L153.305 45.6733C153.457 46.6923 153.715 47.4611 154.077 47.9799C154.439 48.4801 154.973 48.7302 155.678 48.7302C156.231 48.7302 156.651 48.582 156.937 48.2856C157.223 47.9706 157.366 47.5538 157.366 47.035C157.366 46.5718 157.261 46.155 157.051 45.7844C156.841 45.4139 156.498 45.0341 156.022 44.645L153.19 42.2829C152.618 41.8012 152.132 41.2639 151.732 40.671C151.351 40.0782 151.16 39.3093 151.16 38.3644C151.16 37.5122 151.332 36.7989 151.675 36.2246C152.037 35.6317 152.533 35.1871 153.162 34.8906C153.81 34.5757 154.563 34.4182 155.421 34.4182C156.737 34.4182 157.737 34.8351 158.424 35.6688C159.129 36.484 159.53 37.4751 159.625 38.6423L157.566 39.3927C157.49 38.8369 157.375 38.3552 157.223 37.9476C157.07 37.5215 156.86 37.1972 156.594 36.9749C156.327 36.7341 155.974 36.6136 155.535 36.6136C155.04 36.6136 154.639 36.7804 154.334 37.1139C154.048 37.4288 153.905 37.8086 153.905 38.2533C153.905 38.5312 153.963 38.8091 154.077 39.087C154.21 39.3464 154.43 39.6057 154.735 39.8651L157.652 42.4774C158.052 42.8294 158.424 43.2092 158.767 43.6168C159.129 44.0244 159.425 44.4876 159.654 45.0063C159.882 45.5251 159.997 46.1272 159.997 46.8127C159.997 47.7205 159.806 48.4801 159.425 49.0915C159.043 49.7029 158.51 50.166 157.823 50.481C157.137 50.7774 156.336 50.9256 155.421 50.9256Z" fill="#60495D"></path><path d="M45.9337 76.5205C44.5992 76.5205 43.4839 76.2426 42.5878 75.6868C41.7108 75.131 41.0435 74.3621 40.586 73.3802C40.1284 72.3983 39.8615 71.2589 39.7852 69.962L42.645 69.2117C42.7022 70.0083 42.8261 70.7772 43.0168 71.5182C43.2265 72.2593 43.5601 72.8707 44.0177 73.3524C44.4752 73.8156 45.1139 74.0472 45.9337 74.0472C46.7726 74.0472 47.4017 73.8248 47.8212 73.3802C48.2597 72.917 48.4789 72.2593 48.4789 71.4071C48.4789 70.3881 48.2406 69.5729 47.764 68.9615C47.2874 68.3316 46.6868 67.7017 45.9623 67.0718L42.073 63.737C41.3104 63.0885 40.748 62.3845 40.3858 61.6249C40.0235 60.8468 39.8424 59.8926 39.8424 58.7625C39.8424 57.1136 40.3286 55.8353 41.3009 54.9274C42.2732 54.0196 43.5982 53.5657 45.276 53.5657C46.1911 53.5657 46.9918 53.6861 47.6782 53.927C48.3836 54.1493 48.9651 54.5013 49.4227 54.983C49.8993 55.4647 50.2711 56.0761 50.538 56.8172C50.8239 57.5397 51.0146 58.392 51.1099 59.3739L48.3645 60.0964C48.3073 59.3554 48.193 58.6791 48.0214 58.0678C47.8498 57.4378 47.5447 56.9376 47.1062 56.5671C46.6868 56.178 46.0767 55.9835 45.276 55.9835C44.4752 55.9835 43.8461 56.1965 43.3885 56.6227C42.95 57.0302 42.7308 57.6416 42.7308 58.4568C42.7308 59.1423 42.8452 59.7074 43.074 60.152C43.3218 60.5967 43.7126 61.0506 44.2465 61.5137L48.1644 64.8486C49.0414 65.5897 49.8135 66.4789 50.4808 67.5164C51.1481 68.5354 51.4817 69.7489 51.4817 71.157C51.4817 72.2686 51.2434 73.232 50.7668 74.0472C50.2901 74.8438 49.6324 75.4552 48.7935 75.8813C47.9737 76.3074 47.0204 76.5205 45.9337 76.5205Z" fill="#60495D"></path><path d="M58.2495 76.4927C56.8959 76.4927 55.8664 76.2333 55.161 75.7146C54.4746 75.1773 54.0075 74.427 53.7597 73.4636C53.5309 72.5002 53.4165 71.3793 53.4165 70.1009V66.4048C53.4165 65.0524 53.5404 63.9037 53.7883 62.9588C54.0361 61.9954 54.5032 61.2636 55.1896 60.7634C55.895 60.2447 56.915 59.9853 58.2495 59.9853C59.4506 59.9853 60.3753 60.1798 61.0235 60.5689C61.6908 60.9394 62.1483 61.5045 62.3962 62.2641C62.644 63.0052 62.768 63.9315 62.768 65.0431V65.988H59.994V65.0153C59.994 64.3113 59.9463 63.7555 59.851 63.3479C59.7557 62.9403 59.5841 62.6439 59.3362 62.4586C59.0884 62.2733 58.7357 62.1807 58.2781 62.1807C57.7824 62.1807 57.4011 62.2919 57.1342 62.5142C56.8673 62.7365 56.6862 63.1163 56.5908 63.6536C56.5146 64.1723 56.4765 64.8856 56.4765 65.7934V70.8513C56.4765 72.2223 56.6099 73.1393 56.8768 73.6025C57.1437 74.0657 57.6204 74.2973 58.3067 74.2973C58.8215 74.2973 59.1932 74.1861 59.422 73.9638C59.6699 73.7229 59.8224 73.3895 59.8796 72.9633C59.9559 72.5372 59.994 72.0555 59.994 71.5182V70.2121H62.768V71.3237C62.768 72.3983 62.6345 73.3246 62.3676 74.1027C62.1198 74.8809 61.6622 75.4737 60.9949 75.8813C60.3467 76.2889 59.4316 76.4927 58.2495 76.4927Z" fill="#60495D"></path><path d="M65.5743 76.2704V53.7603H68.6343V61.875C69.1872 61.3563 69.8068 60.9116 70.4931 60.5411C71.1795 60.1705 71.9421 59.9853 72.781 59.9853C73.4292 59.9853 73.9249 60.152 74.2681 60.4855C74.6303 60.819 74.8781 61.2358 75.0116 61.7361C75.1641 62.2363 75.2404 62.7458 75.2404 63.2645V76.2704H72.1804V64.126C72.1804 63.5517 72.0946 63.1071 71.923 62.7921C71.7515 62.4771 71.3987 62.3197 70.8649 62.3197C70.5027 62.3197 70.1214 62.4216 69.721 62.6254C69.3397 62.8291 68.9775 63.0793 68.6343 63.3757V76.2704H65.5743Z" fill="#60495D"></path><path d="M82.7705 76.4927C81.5503 76.4927 80.5876 76.2519 79.8821 75.7702C79.1767 75.2885 78.6715 74.603 78.3665 73.7137C78.0805 72.8244 77.9375 71.7776 77.9375 70.5734V65.9046C77.9375 64.7004 78.0805 63.6536 78.3665 62.7643C78.6715 61.875 79.1767 61.1895 79.8821 60.7078C80.5876 60.2261 81.5503 59.9853 82.7705 59.9853C83.9907 59.9853 84.9439 60.2261 85.6303 60.7078C86.3357 61.1895 86.8314 61.875 87.1174 62.7643C87.4224 63.6536 87.5749 64.7004 87.5749 65.9046V70.5734C87.5749 71.7776 87.4224 72.8244 87.1174 73.7137C86.8314 74.603 86.3357 75.2885 85.6303 75.7702C84.9439 76.2519 83.9907 76.4927 82.7705 76.4927ZM82.7705 74.2973C83.3615 74.2973 83.7714 74.1305 84.0002 73.7971C84.2481 73.4636 84.3911 73.0282 84.4292 72.4909C84.4864 71.9351 84.515 71.3608 84.515 70.7679V65.7379C84.515 65.1265 84.4864 64.5521 84.4292 64.0149C84.3911 63.4776 84.2481 63.0422 84.0002 62.7087C83.7714 62.3567 83.3615 62.1807 82.7705 62.1807C82.1795 62.1807 81.7601 62.3567 81.5122 62.7087C81.2644 63.0422 81.1118 63.4776 81.0546 64.0149C81.0165 64.5521 80.9975 65.1265 80.9975 65.7379V70.7679C80.9975 71.3608 81.0165 71.9351 81.0546 72.4909C81.1118 73.0282 81.2644 73.4636 81.5122 73.7971C81.7601 74.1305 82.1795 74.2973 82.7705 74.2973Z" fill="#60495D"></path><path d="M94.919 76.4927C93.6988 76.4927 92.736 76.2519 92.0306 75.7702C91.3252 75.2885 90.82 74.603 90.5149 73.7137C90.2289 72.8244 90.0859 71.7776 90.0859 70.5734V65.9046C90.0859 64.7004 90.2289 63.6536 90.5149 62.7643C90.82 61.875 91.3252 61.1895 92.0306 60.7078C92.736 60.2261 93.6988 59.9853 94.919 59.9853C96.1391 59.9853 97.0924 60.2261 97.7787 60.7078C98.4841 61.1895 98.9798 61.875 99.2658 62.7643C99.5709 63.6536 99.7234 64.7004 99.7234 65.9046V70.5734C99.7234 71.7776 99.5709 72.8244 99.2658 73.7137C98.9798 74.603 98.4841 75.2885 97.7787 75.7702C97.0924 76.2519 96.1391 76.4927 94.919 76.4927ZM94.919 74.2973C95.51 74.2973 95.9199 74.1305 96.1487 73.7971C96.3965 73.4636 96.5395 73.0282 96.5776 72.4909C96.6348 71.9351 96.6634 71.3608 96.6634 70.7679V65.7379C96.6634 65.1265 96.6348 64.5521 96.5776 64.0149C96.5395 63.4776 96.3965 63.0422 96.1487 62.7087C95.9199 62.3567 95.51 62.1807 94.919 62.1807C94.3279 62.1807 93.9085 62.3567 93.6607 62.7087C93.4128 63.0422 93.2603 63.4776 93.2031 64.0149C93.165 64.5521 93.1459 65.1265 93.1459 65.7379V70.7679C93.1459 71.3608 93.165 71.9351 93.2031 72.4909C93.2603 73.0282 93.4128 73.4636 93.6607 73.7971C93.9085 74.1305 94.3279 74.2973 94.919 74.2973Z" fill="#60495D"></path><path d="M102.806 76.2704V53.7603H105.866V76.2704H102.806Z" fill="#60495D"></path><path d="M44.9168 88.5759C44.4791 88.5759 44.076 88.5059 43.7077 88.3658C43.3393 88.2258 43.019 88.0312 42.7468 87.7822C42.4745 87.528 42.2637 87.2324 42.1142 86.8952C41.9647 86.5528 41.89 86.1793 41.89 85.7747C41.89 85.37 41.9647 84.9991 42.1142 84.6619C42.2637 84.3196 42.4745 84.0239 42.7468 83.7749C43.019 83.5207 43.3393 83.3236 43.7077 83.1835C44.076 83.0434 44.4764 82.9734 44.9088 82.9734C45.3465 82.9734 45.7469 83.0434 46.1099 83.1835C46.4782 83.3236 46.7985 83.5207 47.0708 83.7749C47.343 84.0239 47.5539 84.3196 47.7034 84.6619C47.8528 84.9991 47.9276 85.37 47.9276 85.7747C47.9276 86.1793 47.8528 86.5528 47.7034 86.8952C47.5539 87.2375 47.343 87.5332 47.0708 87.7822C46.7985 88.0312 46.4782 88.2258 46.1099 88.3658C45.7469 88.5059 45.3492 88.5759 44.9168 88.5759ZM44.9088 87.6889C45.1917 87.6889 45.4533 87.6422 45.6935 87.5488C45.9337 87.4554 46.1419 87.3231 46.3181 87.152C46.4942 86.9756 46.6304 86.7733 46.7265 86.545C46.8279 86.3116 46.8786 86.0548 46.8786 85.7747C46.8786 85.4945 46.8279 85.2404 46.7265 85.0121C46.6304 84.7787 46.4942 84.5763 46.3181 84.4052C46.1419 84.2288 45.9337 84.0939 45.6935 84.0005C45.4533 83.9072 45.1917 83.8605 44.9088 83.8605C44.6259 83.8605 44.3643 83.9072 44.1241 84.0005C43.8892 84.0939 43.681 84.2288 43.4995 84.4052C43.3233 84.5763 43.1845 84.7787 43.0831 85.0121C42.987 85.2404 42.939 85.4945 42.939 85.7747C42.939 86.0496 42.987 86.3038 43.0831 86.5372C43.1845 86.7707 43.3233 86.9756 43.4995 87.152C43.6757 87.3231 43.8838 87.4554 44.1241 87.5488C44.3643 87.6422 44.6259 87.6889 44.9088 87.6889Z" fill="#847478"></path><path d="M51.1764 88.5759C50.7493 88.5759 50.3516 88.5085 49.9833 88.3736C49.6203 88.2335 49.3026 88.039 49.0304 87.79C48.7635 87.5358 48.5553 87.2375 48.4058 86.8952C48.2563 86.5528 48.1816 86.1793 48.1816 85.7747C48.1816 85.37 48.2563 84.9965 48.4058 84.6542C48.5553 84.3118 48.7662 84.0161 49.0384 83.7671C49.3107 83.5129 49.6283 83.3184 49.9913 83.1835C50.3543 83.0434 50.752 82.9734 51.1844 82.9734C51.6435 82.9734 52.0625 83.0512 52.4415 83.2068C52.8205 83.3573 53.1408 83.5829 53.4024 83.8838L52.7298 84.4985C52.5269 84.2858 52.3001 84.1276 52.0492 84.0239C51.7983 83.9149 51.526 83.8605 51.2324 83.8605C50.9388 83.8605 50.6692 83.9072 50.4237 84.0005C50.1835 84.0939 49.9726 84.2262 49.7911 84.3974C49.6149 84.5686 49.4761 84.7709 49.3747 85.0043C49.2786 85.2378 49.2306 85.4945 49.2306 85.7747C49.2306 86.0548 49.2786 86.3116 49.3747 86.545C49.4761 86.7784 49.6149 86.9808 49.7911 87.152C49.9726 87.3231 50.1835 87.4554 50.4237 87.5488C50.6692 87.6422 50.9388 87.6889 51.2324 87.6889C51.526 87.6889 51.7983 87.637 52.0492 87.5332C52.3001 87.4243 52.5269 87.2609 52.7298 87.043L53.4024 87.6655C53.1408 87.9612 52.8205 88.1869 52.4415 88.3425C52.0625 88.4981 51.6408 88.5759 51.1764 88.5759Z" fill="#847478"></path><path d="M53.8965 88.4981V83.0512H56.4028C57.0327 83.0512 57.5238 83.1731 57.8762 83.4169C58.2285 83.6556 58.4046 84.0005 58.4046 84.4518C58.4046 84.898 58.2365 85.2429 57.9002 85.4868C57.5639 85.7254 57.1208 85.8447 56.5709 85.8447L56.7151 85.5646C57.3397 85.5646 57.8228 85.6865 58.1644 85.9303C58.5061 86.1741 58.6769 86.5269 58.6769 86.9885C58.6769 87.4606 58.4981 87.8315 58.1404 88.1013C57.7827 88.3658 57.2542 88.4981 56.5549 88.4981H53.8965ZM54.9214 87.72H56.5229C56.8859 87.72 57.1608 87.6551 57.3477 87.5254C57.5345 87.3906 57.6279 87.1857 57.6279 86.9107C57.6279 86.6358 57.5345 86.4361 57.3477 86.3116C57.1608 86.1819 56.8859 86.117 56.5229 86.117H54.9214V87.72ZM54.9214 85.3778H56.3147C56.651 85.3778 56.9073 85.313 57.0834 85.1833C57.2596 85.0484 57.3477 84.8565 57.3477 84.6075C57.3477 84.3481 57.2596 84.1536 57.0834 84.0239C56.9073 83.8942 56.651 83.8293 56.3147 83.8293H54.9214V85.3778Z" fill="#847478"></path><path d="M59.3903 88.4981V83.0512H60.4152V88.4981H59.3903Z" fill="#847478"></path><path d="M62.6907 88.4981V83.6581L62.9389 83.9072H60.841V83.0512H65.5814V83.9072H63.4834L63.7237 83.6581V88.4981H62.6907Z" fill="#847478"></path><path d="M69.9383 83.0512H70.9793V88.4981H69.9383V83.0512ZM67.0396 88.4981H65.9987V83.0512H67.0396V88.4981ZM70.0184 86.1637H66.9516V85.3H70.0184V86.1637Z" fill="#847478"></path><path d="M72.0792 88.4981V83.0512H73.1041V88.4981H72.0792Z" fill="#847478"></path><path d="M74.2105 88.4981V83.0512H75.2354V86.9185L78.2462 83.0512H79.2151V88.4981H78.1902V84.6386L75.1794 88.4981H74.2105ZM76.7008 82.6855C76.2203 82.6855 75.8573 82.5869 75.6118 82.3898C75.3716 82.1927 75.2488 81.9151 75.2434 81.5572H75.9721C75.9774 81.7491 76.0415 81.897 76.1643 82.0007C76.2924 82.1045 76.4712 82.1564 76.7008 82.1564C76.9303 82.1564 77.1092 82.1045 77.2373 82.0007C77.3707 81.897 77.4401 81.7491 77.4455 81.5572H78.1661C78.1608 81.9151 78.0353 82.1927 77.7898 82.3898C77.5442 82.5869 77.1812 82.6855 76.7008 82.6855Z" fill="#847478"></path><path d="M82.0468 88.4981V83.0512H83.0717V87.6422H85.8983V83.0512H86.9313V88.4981H82.0468ZM86.8031 89.6964V88.2491L87.0354 88.4981H85.8983V87.6422H87.764V89.6964H86.8031Z" fill="#847478"></path><path d="M89.1972 85.3156H91.9838V86.1482H89.1972V85.3156ZM89.2773 87.65H92.4402V88.4981H88.2363V83.0512H92.3281V83.8994H89.2773V87.65Z" fill="#847478"></path><path d="M97.0598 83.0512H98.1008V88.4981H97.0598V83.0512ZM94.1612 88.4981H93.1202V83.0512H94.1612V88.4981ZM97.1399 86.1637H94.0731V85.3H97.1399V86.1637Z" fill="#847478"></path><path d="M100.37 88.4981V83.6581L100.618 83.9072H98.52V83.0512H103.26V83.9072H101.162L101.403 83.6581V88.4981H100.37Z" fill="#847478"></path><path d="M103.678 88.4981V83.0512H105.984C106.48 83.0512 106.905 83.129 107.257 83.2847C107.615 83.4403 107.89 83.6633 108.082 83.9538C108.274 84.2443 108.37 84.5893 108.37 84.9888C108.37 85.3882 108.274 85.7332 108.082 86.0237C107.89 86.3142 107.615 86.5372 107.257 86.6929C106.905 86.8485 106.48 86.9263 105.984 86.9263H104.254L104.719 86.4516V88.4981H103.678ZM104.719 86.5606L104.254 86.0704H105.936C106.395 86.0704 106.739 85.977 106.969 85.7902C107.204 85.5983 107.321 85.3311 107.321 84.9888C107.321 84.6412 107.204 84.374 106.969 84.1873C106.739 84.0005 106.395 83.9072 105.936 83.9072H104.254L104.719 83.4092V86.5606Z" fill="#847478"></path><path d="M39.6185 0.643088C39.1841 -0.0476948 38.1557 -0.0476967 37.7213 0.643086L34.5908 5.62178C34.4367 5.86691 34.1893 6.04237 33.9028 6.10969L28.0841 7.47709C27.2767 7.66681 26.9589 8.62146 27.4978 9.23811L31.3818 13.6825C31.573 13.9013 31.6675 14.1852 31.6446 14.472L31.1789 20.2958C31.1143 21.1038 31.9463 21.6938 32.7137 21.3841L38.2447 19.1522C38.517 19.0423 38.8228 19.0423 39.0951 19.1522L44.6261 21.3841C45.3935 21.6938 46.2255 21.1038 46.1609 20.2958L45.6952 14.472C45.6723 14.1852 45.7668 13.9013 45.958 13.6825L49.842 9.23811C50.3809 8.62146 50.0631 7.66681 49.2558 7.47709L43.437 6.10969C43.1505 6.04237 42.9031 5.86691 42.749 5.62178L39.6185 0.643088Z" fill="#5B57D6"></path><path d="M20.3394 16.1418C19.9594 15.5361 19.0595 15.5361 18.6794 16.1418L15.9402 20.5074C15.8054 20.7223 15.5889 20.8762 15.3382 20.9352L10.2468 22.1342C9.54039 22.3006 9.26231 23.1376 9.73384 23.6784L13.1323 27.5754C13.2996 27.7673 13.3823 28.0162 13.3623 28.2676L12.9548 33.3742C12.8983 34.0827 13.6263 34.6001 14.2978 34.3285L19.1373 32.3715C19.3756 32.2752 19.6432 32.2752 19.8815 32.3715L24.7211 34.3285C25.3925 34.6001 26.1206 34.0827 26.064 33.3742L25.6566 28.2676C25.6365 28.0162 25.7192 27.7673 25.8865 27.5754L29.285 23.6784C29.7565 23.1376 29.4785 22.3006 28.772 22.1342L23.6807 20.9352C23.43 20.8762 23.2135 20.7223 23.0786 20.5074L20.3394 16.1418Z" fill="#F05165"></path><path d="M10.2116 34.9778C9.88588 34.454 9.11456 34.454 8.78879 34.9778L6.44091 38.753C6.32532 38.9389 6.13974 39.0719 5.92488 39.123L1.56083 40.1598C0.955332 40.3037 0.71698 41.0276 1.12115 41.4952L4.03413 44.8652C4.17754 45.0312 4.24843 45.2464 4.23123 45.4639L3.88198 49.8799C3.83353 50.4926 4.45754 50.94 5.0331 50.7052L9.18129 49.0128C9.38553 48.9294 9.61491 48.9294 9.81915 49.0128L13.9673 50.7052C14.5429 50.94 15.1669 50.4926 15.1185 49.8799L14.7692 45.4639C14.752 45.2464 14.8229 45.0312 14.9663 44.8652L17.8793 41.4952C18.2835 41.0276 18.0451 40.3037 17.4396 40.1598L13.0756 39.123C12.8607 39.0719 12.6751 38.9389 12.5595 38.753L10.2116 34.9778Z" fill="#84BA39"></path><path d="M11.523 54.9185C11.2515 54.4858 10.6087 54.4858 10.3373 54.9185L8.38068 58.0376C8.28435 58.1911 8.12971 58.301 7.95066 58.3432L4.31395 59.1998C3.80937 59.3187 3.61074 59.9168 3.94755 60.3031L6.37503 63.0874C6.49454 63.2245 6.55361 63.4023 6.53928 63.582L6.24824 67.2304C6.20786 67.7366 6.72787 68.1063 7.2075 67.9123L10.6643 66.514C10.8345 66.4452 11.0257 66.4452 11.1959 66.514L14.6527 67.9123C15.1323 68.1063 15.6523 67.7366 15.612 67.2304L15.3209 63.582C15.3066 63.4023 15.3657 63.2245 15.4852 63.0874L17.9127 60.3031C18.2495 59.9168 18.0508 59.3187 17.5463 59.1998L13.9096 58.3432C13.7305 58.301 13.5759 58.1911 13.4795 58.0376L11.523 54.9185Z" fill="#FFBB02"></path><path d="M16.838 71.5267C16.6208 71.1819 16.1066 71.1819 15.8894 71.5267L14.3241 74.0118C14.2471 74.1341 14.1234 74.2217 13.9801 74.2553L11.0708 74.9378C10.6671 75.0325 10.5082 75.509 10.7776 75.8168L12.7196 78.0351C12.8152 78.1443 12.8625 78.286 12.851 78.4292L12.6182 81.336C12.5859 81.7393 13.0019 82.0338 13.3856 81.8792L16.1511 80.7652C16.2872 80.7104 16.4401 80.7104 16.5763 80.7652L19.3418 81.8792C19.7255 82.0338 20.1415 81.7393 20.1092 81.336L19.8763 78.4292C19.8649 78.286 19.9121 78.1443 20.0077 78.0351L21.9497 75.8168C22.2192 75.509 22.0603 75.0325 21.6566 74.9378L18.7472 74.2553C18.604 74.2217 18.4803 74.1341 18.4032 74.0118L16.838 71.5267Z" fill="#07B1BC"></path><path d="M27.3005 78.1317C27.1377 77.8732 26.752 77.8732 26.5891 78.1317L25.4152 79.9955C25.3574 80.0873 25.2646 80.153 25.1572 80.1782L22.9751 80.69C22.6724 80.7611 22.5532 81.1184 22.7553 81.3493L24.2118 83.013C24.2835 83.095 24.3189 83.2012 24.3103 83.3086L24.1357 85.4887C24.1115 85.7912 24.4235 86.0121 24.7113 85.8961L26.7854 85.0606C26.8875 85.0195 27.0022 85.0195 27.1043 85.0606L29.1784 85.8961C29.4662 86.0121 29.7782 85.7912 29.754 85.4887L29.5793 83.3086C29.5707 83.2012 29.6062 83.095 29.6779 83.013L31.1344 81.3493C31.3365 81.1184 31.2173 80.7611 30.9145 80.69L28.7325 80.1782C28.6251 80.153 28.5323 80.0873 28.4745 79.9955L27.3005 78.1317Z" fill="#FB4C1F"></path><path d="M36.0473 82.5136C35.9387 82.3412 35.6816 82.3412 35.573 82.5136L34.7904 83.7561C34.7518 83.8172 34.69 83.861 34.6184 83.8778L33.1637 84.2191C32.9618 84.2664 32.8824 84.5047 33.0171 84.6586L33.9881 85.7677C34.0359 85.8223 34.0595 85.8932 34.0538 85.9648L33.9374 87.4182C33.9212 87.6198 34.1292 87.7671 34.3211 87.6898L35.7038 87.1328C35.7719 87.1054 35.8484 87.1054 35.9164 87.1328L37.2992 87.6898C37.491 87.7671 37.699 87.6198 37.6829 87.4182L37.5665 85.9648C37.5607 85.8932 37.5844 85.8223 37.6322 85.7677L38.6032 84.6586C38.7379 84.5047 38.6584 84.2664 38.4566 84.2191L37.0019 83.8778C36.9303 83.861 36.8684 83.8172 36.8299 83.7561L36.0473 82.5136Z" fill="#9F57D6"></path></svg>