<svg xmlns="http://www.w3.org/2000/svg" width="57" height="57" viewBox="0 0 57 57" fill="none"><path d="M51.5312 17.8906H38.6573C39.8569 17.3606 40.971 16.6549 41.9628 15.7969C42.6507 15.1852 43.2048 14.438 43.5903 13.6021C43.9758 12.7662 44.1844 11.8597 44.2031 10.9394C44.2328 9.91948 44.0538 8.90429 43.6771 7.95606C43.3004 7.00783 42.7339 6.14656 42.0124 5.42509C41.2909 4.70361 40.4297 4.13714 39.4814 3.76043C38.5332 3.38372 37.518 3.2047 36.4981 3.23437C35.5778 3.25305 34.6713 3.4617 33.8354 3.84721C32.9995 4.23273 32.2523 4.7868 31.6406 5.47468C30.0939 7.22034 29.1203 9.49468 28.5 11.6748C27.885 9.49468 26.9114 7.22558 25.3594 5.47468C24.7477 4.7868 24.0005 4.23273 23.1646 3.84721C22.3287 3.4617 21.4222 3.25305 20.5019 3.23437C19.482 3.2047 18.4668 3.38372 17.5186 3.76043C16.5703 4.13714 15.7091 4.70361 14.9876 5.42509C14.2661 6.14656 13.6997 7.00783 13.3229 7.95606C12.9462 8.90429 12.7672 9.91948 12.7969 10.9394C12.8156 11.8597 13.0242 12.7662 13.4097 13.6021C13.7952 14.438 14.3493 15.1852 15.0372 15.7969C16.029 16.6549 17.1431 17.3606 18.3427 17.8906H5.46875C4.6358 17.8906 3.83697 18.2215 3.24799 18.8105C2.65901 19.3995 2.32812 20.1983 2.32812 21.0312V29.4062C2.32812 30.2392 2.65901 31.038 3.24799 31.627C3.83697 32.216 4.6358 32.5469 5.46875 32.5469H6.51562V50.3437C6.51562 51.1767 6.84651 51.9755 7.43549 52.5645C8.02447 53.1535 8.8233 53.4844 9.65625 53.4844H47.3438C48.1767 53.4844 48.9755 53.1535 49.5645 52.5645C50.1535 51.9755 50.4844 51.1767 50.4844 50.3437V32.5469H51.5312C52.3642 32.5469 53.163 32.216 53.752 31.627C54.341 31.038 54.6719 30.2392 54.6719 29.4062V21.0312C54.6719 20.1983 54.341 19.3995 53.752 18.8105C53.163 18.2215 52.3642 17.8906 51.5312 17.8906ZM33.2109 6.86179C33.6337 6.38938 34.1495 6.00933 34.7259 5.74543C35.3024 5.48153 35.9271 5.33946 36.5609 5.32812H36.7206C37.4416 5.32888 38.1551 5.47411 38.819 5.75523C39.483 6.03634 40.0838 6.44765 40.5862 6.96486C41.0885 7.48206 41.4821 8.09468 41.7437 8.76653C42.0053 9.43838 42.1297 10.1558 42.1094 10.8766C42.098 11.5104 41.956 12.1351 41.6921 12.7116C41.4282 13.288 41.0481 13.8038 40.5757 14.2266C37.4115 17.0269 31.9207 17.6839 29.5835 17.8357C29.7458 15.5168 30.4001 10.0391 33.2109 6.86179ZM14.8906 10.8766C14.8703 10.1558 14.9947 9.43838 15.2563 8.76653C15.5179 8.09468 15.9115 7.48206 16.4138 6.96486C16.9162 6.44765 17.517 6.03634 18.181 5.75523C18.8449 5.47411 19.5584 5.32888 20.2794 5.32812H20.4391C21.0729 5.33946 21.6976 5.48153 22.2741 5.74543C22.8505 6.00933 23.3663 6.38938 23.7891 6.86179C26.5921 10.026 27.2464 15.5168 27.3982 17.854C25.0715 17.7022 19.5806 17.0453 16.406 14.2449C15.9347 13.8184 15.5567 13.2989 15.2959 12.7193C15.0351 12.1396 14.8971 11.5122 14.8906 10.8766ZM4.42188 29.4062V21.0312C4.42188 20.7536 4.53217 20.4873 4.7285 20.291C4.92482 20.0947 5.1911 19.9844 5.46875 19.9844H27.4531V30.4531H5.46875C5.1911 30.4531 4.92482 30.3428 4.7285 30.1465C4.53217 29.9502 4.42188 29.6839 4.42188 29.4062ZM8.60938 50.3437V32.5469H27.4531V51.3906H9.65625C9.3786 51.3906 9.11232 51.2803 8.916 51.084C8.71967 50.8877 8.60938 50.6214 8.60938 50.3437ZM48.3906 50.3437C48.3906 50.6214 48.2803 50.8877 48.084 51.084C47.8877 51.2803 47.6214 51.3906 47.3438 51.3906H29.5469V32.5469H48.3906V50.3437ZM52.5781 29.4062C52.5781 29.6839 52.4678 29.9502 52.2715 30.1465C52.0752 30.3428 51.8089 30.4531 51.5312 30.4531H29.5469V19.9844H51.5312C51.8089 19.9844 52.0752 20.0947 52.2715 20.291C52.4678 20.4873 52.5781 20.7536 52.5781 21.0312V29.4062Z" fill="white"></path></svg>