<svg xmlns="http://www.w3.org/2000/svg" width="1295" height="165" viewBox="0 0 1295 165" fill="none"><path d="M29.051 164.2C19.2243 164.2 11.9643 162.733 7.27099 159.8C2.57766 156.867 0.230992 153.787 0.230992 150.56C0.230992 148.507 0.597658 146.16 1.33099 143.52C2.21099 140.733 3.45766 138.313 5.07099 136.26C7.41766 138.313 10.4243 140.073 14.091 141.54C17.9043 143.007 22.231 143.74 27.071 143.74C34.4043 143.74 39.5377 141.833 42.471 138.02C45.4043 134.207 46.871 129.22 46.871 123.06C46.871 118.367 45.991 114.04 44.231 110.08C42.6177 106.12 39.5377 101.427 34.991 96L13.651 70.04C8.66433 63.7333 5.14432 58.0867 3.09099 53.1C1.18432 48.1133 0.230992 43.1267 0.230992 38.14C0.230992 28.6067 3.45766 20.8333 9.91099 14.82C16.511 8.80666 26.1177 5.79999 38.731 5.79999C49.291 5.79999 56.771 6.89999 61.171 9.09999C65.571 11.1533 67.771 13.8667 67.771 17.24C67.771 18.8533 67.4043 20.6867 66.671 22.74C65.9377 24.7933 64.691 26.7733 62.931 28.68C61.611 27.6533 59.0443 26.5533 55.231 25.38C51.4177 24.2067 47.091 23.62 42.251 23.62C35.9443 23.62 30.9577 24.8667 27.291 27.36C23.771 29.7067 22.011 33.08 22.011 37.48C22.011 41.2933 22.8177 44.8133 24.431 48.04C26.0443 51.12 28.391 54.64 31.471 58.6L54.351 85.66C59.9243 92.4067 63.6643 98.5667 65.571 104.14C67.6243 109.567 68.651 115.653 68.651 122.4C68.651 129.733 67.4043 136.627 64.911 143.08C62.5643 149.387 58.531 154.52 52.811 158.48C47.2377 162.293 39.3177 164.2 29.051 164.2ZM118.05 164.2C112.916 164.2 108.223 163.467 103.97 162C99.7163 160.533 96.0496 157.967 92.9696 154.3C89.8896 150.633 87.4696 145.427 85.7096 138.68C83.9496 131.933 83.0696 123.207 83.0696 112.5C83.0696 98.86 84.1696 87.9333 86.3696 79.72C88.5696 71.36 91.5029 65.0533 95.1696 60.8C98.8363 56.5467 103.016 53.6867 107.71 52.22C112.403 50.6067 117.17 49.8 122.01 49.8C131.103 49.8 138.07 52.7333 142.91 58.6C147.75 64.32 150.17 73.1933 150.17 85.22C150.17 90.3533 149.95 95.56 149.51 100.84C149.07 106.12 148.336 110.74 147.31 114.7C142.616 115.727 137.263 116.46 131.25 116.9C125.236 117.34 119.443 117.707 113.87 118C108.443 118.147 103.97 118.22 100.45 118.22C96.9296 118.22 95.1696 118.22 95.1696 118.22L95.6096 101.94C95.6096 101.94 96.8563 102.013 99.3496 102.16C101.843 102.16 104.996 102.16 108.81 102.16C112.623 102.16 116.363 102.013 120.03 101.72C123.843 101.28 126.996 100.693 129.49 99.96C129.93 98.0533 130.223 96 130.37 93.8C130.516 91.4533 130.59 89.2533 130.59 87.2C130.59 79.5733 129.783 74.3667 128.17 71.58C126.703 68.7933 123.843 67.4 119.59 67.4C117.39 67.4 115.263 68.1333 113.21 69.6C111.303 70.92 109.616 73.2667 108.15 76.64C106.83 80.0133 105.73 84.56 104.85 90.28C104.116 96 103.75 103.113 103.75 111.62C103.75 117.927 104.116 123.207 104.85 127.46C105.583 131.713 106.61 135.087 107.93 137.58C109.396 140.073 111.303 141.907 113.65 143.08C116.143 144.107 119.076 144.62 122.45 144.62C126.703 144.62 130.883 144.033 134.99 142.86C139.243 141.687 143.203 140.073 146.87 138.02C147.603 139.927 148.043 142.2 148.19 144.84C148.483 147.333 148.63 149.607 148.63 151.66C148.63 154.153 147.236 156.353 144.45 158.26C141.663 160.167 137.923 161.633 133.23 162.66C128.683 163.687 123.623 164.2 118.05 164.2ZM193.173 163.32C190.826 163.32 188.993 162.293 187.673 160.24C186.499 158.04 185.473 155.4 184.593 152.32L163.473 58.16C163.033 55.96 163.033 54.4933 163.473 53.76C164.059 53.0267 165.893 52.5867 168.973 52.44C172.199 52.1467 177.553 52 185.033 52L190.973 86.1C191.999 91.5267 192.953 97.3933 193.833 103.7C194.713 110.007 195.446 116.02 196.033 121.74C196.766 127.313 197.279 131.86 197.573 135.38C198.013 138.9 198.233 140.66 198.233 140.66H198.673C198.673 140.66 198.819 138.9 199.113 135.38C199.553 131.86 200.066 127.313 200.653 121.74C201.386 116.02 202.119 110.007 202.853 103.7C203.733 97.2467 204.686 91.3067 205.713 85.88L210.773 56.18C211.066 54.86 211.506 53.9067 212.093 53.32C212.679 52.7333 214.439 52.3667 217.373 52.22C220.306 52.0733 225.073 52 231.673 52L207.473 162.44C205.566 162.733 203.146 162.953 200.213 163.1C197.279 163.247 194.933 163.32 193.173 163.32ZM276.381 164.2C271.248 164.2 266.554 163.467 262.301 162C258.048 160.533 254.381 157.967 251.301 154.3C248.221 150.633 245.801 145.427 244.041 138.68C242.281 131.933 241.401 123.207 241.401 112.5C241.401 98.86 242.501 87.9333 244.701 79.72C246.901 71.36 249.834 65.0533 253.501 60.8C257.168 56.5467 261.348 53.6867 266.041 52.22C270.734 50.6067 275.501 49.8 280.341 49.8C289.434 49.8 296.401 52.7333 301.241 58.6C306.081 64.32 308.501 73.1933 308.501 85.22C308.501 90.3533 308.281 95.56 307.841 100.84C307.401 106.12 306.668 110.74 305.641 114.7C300.948 115.727 295.594 116.46 289.581 116.9C283.568 117.34 277.774 117.707 272.201 118C266.774 118.147 262.301 118.22 258.781 118.22C255.261 118.22 253.501 118.22 253.501 118.22L253.941 101.94C253.941 101.94 255.188 102.013 257.681 102.16C260.174 102.16 263.328 102.16 267.141 102.16C270.954 102.16 274.694 102.013 278.361 101.72C282.174 101.28 285.328 100.693 287.821 99.96C288.261 98.0533 288.554 96 288.701 93.8C288.848 91.4533 288.921 89.2533 288.921 87.2C288.921 79.5733 288.114 74.3667 286.501 71.58C285.034 68.7933 282.174 67.4 277.921 67.4C275.721 67.4 273.594 68.1333 271.541 69.6C269.634 70.92 267.948 73.2667 266.481 76.64C265.161 80.0133 264.061 84.56 263.181 90.28C262.448 96 262.081 103.113 262.081 111.62C262.081 117.927 262.448 123.207 263.181 127.46C263.914 131.713 264.941 135.087 266.261 137.58C267.728 140.073 269.634 141.907 271.981 143.08C274.474 144.107 277.408 144.62 280.781 144.62C285.034 144.62 289.214 144.033 293.321 142.86C297.574 141.687 301.534 140.073 305.201 138.02C305.934 139.927 306.374 142.2 306.521 144.84C306.814 147.333 306.961 149.607 306.961 151.66C306.961 154.153 305.568 156.353 302.781 158.26C299.994 160.167 296.254 161.633 291.561 162.66C287.014 163.687 281.954 164.2 276.381 164.2ZM327.304 162V57.28C330.091 55.96 333.391 54.7867 337.204 53.76C341.164 52.5867 345.344 51.6333 349.744 50.9C354.144 50.1667 358.177 49.8 361.844 49.8C369.617 49.8 375.704 50.7533 380.104 52.66C384.651 54.42 387.951 57.4267 390.004 61.68C392.057 65.9333 393.084 71.6533 393.084 78.84V158.04C393.084 159.36 392.717 160.313 391.984 160.9C391.397 161.34 389.637 161.633 386.704 161.78C383.917 161.927 379.151 162 372.404 162V85C372.404 78.4 371.671 73.78 370.204 71.14C368.884 68.5 365.877 67.18 361.184 67.18C359.131 67.18 356.784 67.4733 354.144 68.06C351.651 68.6467 349.377 69.5267 347.324 70.7V158.04C347.324 159.36 347.031 160.313 346.444 160.9C345.857 161.34 344.171 161.633 341.384 161.78C338.597 161.927 333.904 162 327.304 162ZM476.974 164.2C467.148 164.2 459.888 162.733 455.194 159.8C450.501 156.867 448.154 153.787 448.154 150.56C448.154 148.507 448.521 146.16 449.254 143.52C450.134 140.733 451.381 138.313 452.994 136.26C455.341 138.313 458.348 140.073 462.014 141.54C465.828 143.007 470.154 143.74 474.994 143.74C482.328 143.74 487.461 141.833 490.394 138.02C493.328 134.207 494.794 129.22 494.794 123.06C494.794 118.367 493.914 114.04 492.154 110.08C490.541 106.12 487.461 101.427 482.914 96L461.574 70.04C456.588 63.7333 453.068 58.0867 451.014 53.1C449.108 48.1133 448.154 43.1267 448.154 38.14C448.154 28.6067 451.381 20.8333 457.834 14.82C464.434 8.80666 474.041 5.79999 486.654 5.79999C497.214 5.79999 504.694 6.89999 509.094 9.09999C513.494 11.1533 515.694 13.8667 515.694 17.24C515.694 18.8533 515.328 20.6867 514.594 22.74C513.861 24.7933 512.614 26.7733 510.854 28.68C509.534 27.6533 506.968 26.5533 503.154 25.38C499.341 24.2067 495.014 23.62 490.174 23.62C483.868 23.62 478.881 24.8667 475.214 27.36C471.694 29.7067 469.934 33.08 469.934 37.48C469.934 41.2933 470.741 44.8133 472.354 48.04C473.968 51.12 476.314 54.64 479.394 58.6L502.274 85.66C507.848 92.4067 511.588 98.5667 513.494 104.14C515.548 109.567 516.574 115.653 516.574 122.4C516.574 129.733 515.328 136.627 512.834 143.08C510.488 149.387 506.454 154.52 500.734 158.48C495.161 162.293 487.241 164.2 476.974 164.2ZM564.653 164.2C558.346 164.2 553.653 162.953 550.573 160.46C547.493 157.82 545.44 154.08 544.413 149.24C543.533 144.253 543.093 138.533 543.093 132.08V69.16H528.573C528.573 64.0267 528.646 60.2867 528.793 57.94C528.94 55.4467 529.306 53.8333 529.893 53.1C530.626 52.3667 531.653 52 532.973 52H543.093V19C543.093 16.8 543.606 15.26 544.633 14.38C545.806 13.5 547.786 12.9867 550.573 12.84C553.506 12.5467 557.686 12.4 563.113 12.4V52H584.233C584.233 57.1333 584.16 60.9467 584.013 63.44C583.866 65.7867 583.5 67.3267 582.913 68.06C582.473 68.7933 581.593 69.16 580.273 69.16H563.113V131.86C563.113 134.5 563.186 136.993 563.333 139.34C563.626 141.687 564.213 143.593 565.093 145.06C566.12 146.38 567.806 147.04 570.153 147.04C572.646 147.04 574.773 146.82 576.533 146.38C578.44 145.793 580.493 144.987 582.693 143.96C582.986 145.133 583.28 146.6 583.573 148.36C583.866 149.973 584.013 151.733 584.013 153.64C584.013 156.573 582.986 158.847 580.933 160.46C578.88 161.927 576.386 162.88 573.453 163.32C570.52 163.907 567.586 164.2 564.653 164.2ZM628.728 164.2C624.621 164.2 620.661 163.833 616.848 163.1C613.181 162.513 609.808 161.12 606.728 158.92C603.795 156.573 601.448 153.127 599.688 148.58C598.075 144.033 597.268 138.02 597.268 130.54C597.268 122.913 598.001 116.753 599.468 112.06C601.081 107.22 603.208 103.553 605.848 101.06C608.635 98.42 611.641 96.66 614.868 95.78C618.241 94.7533 621.688 94.24 625.208 94.24C627.408 94.24 630.048 94.46 633.128 94.9C636.208 95.34 638.775 96.1467 640.828 97.32C640.828 97.32 640.828 96.3667 640.828 94.46C640.828 92.5533 640.828 90.28 640.828 87.64C640.828 85 640.828 82.6533 640.828 80.6C640.828 77.6667 640.388 75.3933 639.508 73.78C638.628 72.1667 637.235 70.9933 635.328 70.26C633.568 69.5267 631.295 69.16 628.508 69.16C623.375 69.16 618.241 69.6733 613.108 70.7C607.975 71.58 603.721 72.68 600.348 74C599.175 71.9467 598.368 69.8933 597.928 67.84C597.635 65.7867 597.488 64.0267 597.488 62.56C597.488 61.3867 597.708 60.14 598.148 58.82C598.588 57.5 599.248 56.5467 600.128 55.96C602.035 54.7867 605.921 53.4667 611.788 52C617.801 50.5333 625.061 49.8 633.568 49.8C643.248 49.8 650.215 51.78 654.468 55.74C658.721 59.7 660.848 66.6667 660.848 76.64V87.86C660.848 96.22 660.775 104.727 660.628 113.38C660.628 121.887 660.555 129.88 660.408 137.36C660.261 144.84 660.041 151.367 659.748 156.94C656.521 158.847 652.268 160.533 646.988 162C641.708 163.467 635.621 164.2 628.728 164.2ZM630.268 147.48C632.321 147.48 634.228 147.187 635.988 146.6C637.895 146.013 639.288 145.28 640.168 144.4C640.315 142.2 640.461 139.193 640.608 135.38C640.755 131.567 640.828 127.533 640.828 123.28C640.828 118.88 640.828 114.847 640.828 111.18C639.508 110.447 638.041 109.933 636.428 109.64C634.815 109.347 633.275 109.2 631.808 109.2C630.048 109.2 628.288 109.493 626.528 110.08C624.915 110.52 623.448 111.473 622.128 112.94C620.955 114.407 620.001 116.533 619.268 119.32C618.681 121.96 618.388 125.48 618.388 129.88C618.388 133.547 618.608 136.553 619.048 138.9C619.635 141.1 620.441 142.86 621.468 144.18C622.495 145.5 623.741 146.38 625.208 146.82C626.821 147.26 628.508 147.48 630.268 147.48ZM681.667 162V59.7C685.774 56.7667 690.394 54.42 695.527 52.66C700.807 50.7533 706.234 49.8 711.807 49.8C717.674 49.8 721.634 50.6067 723.687 52.22C725.887 53.8333 726.987 56.3267 726.987 59.7C726.987 60.8733 726.841 62.56 726.547 64.76C726.254 66.96 725.667 69.16 724.787 71.36C723.321 70.48 721.781 69.8933 720.167 69.6C718.554 69.16 716.867 68.94 715.107 68.94C713.054 68.94 710.854 69.3067 708.507 70.04C706.307 70.7733 704.181 71.9467 702.127 73.56V158.04C702.127 159.36 701.834 160.313 701.247 160.9C700.661 161.34 698.901 161.633 695.967 161.78C693.181 161.927 688.414 162 681.667 162ZM766.321 164.2C758.694 164.2 752.314 163.32 747.181 161.56C742.194 159.653 739.701 156.647 739.701 152.54C739.701 150.927 739.921 149.167 740.361 147.26C740.948 145.207 741.901 143.08 743.221 140.88C746.301 142.64 749.601 143.96 753.121 144.84C756.641 145.72 760.308 146.16 764.121 146.16C769.254 146.16 773.141 145.133 775.781 143.08C778.568 141.027 779.961 138.02 779.961 134.06C779.961 131.567 779.448 129.073 778.421 126.58C777.394 123.94 775.414 121.227 772.481 118.44L751.801 99.52C747.254 95.4133 744.101 91.38 742.341 87.42C740.728 83.46 739.921 79.72 739.921 76.2C739.921 71.0667 741.094 66.52 743.441 62.56C745.934 58.6 749.821 55.52 755.101 53.32C760.528 50.9733 767.494 49.8 776.001 49.8C783.774 49.8 789.568 50.5333 793.381 52C797.341 53.4667 799.981 55.2267 801.301 57.28C802.621 59.1867 803.281 60.9467 803.281 62.56C803.281 66.08 801.888 69.4533 799.101 72.68C795.874 70.7733 792.574 69.38 789.201 68.5C785.974 67.62 782.381 67.18 778.421 67.18C773.728 67.18 770.061 67.9867 767.421 69.6C764.781 71.2133 763.461 73.4867 763.461 76.42C763.461 78.18 763.901 80.0133 764.781 81.92C765.808 83.68 768.008 86.1 771.381 89.18L790.521 105.9C795.214 110.593 798.441 114.92 800.201 118.88C801.961 122.84 802.841 127.607 802.841 133.18C802.841 143.007 799.541 150.633 792.941 156.06C786.488 161.487 777.614 164.2 766.321 164.2ZM883.863 164.2C874.036 164.2 866.776 162.733 862.083 159.8C857.389 156.867 855.043 153.787 855.043 150.56C855.043 148.507 855.409 146.16 856.143 143.52C857.023 140.733 858.269 138.313 859.883 136.26C862.229 138.313 865.236 140.073 868.903 141.54C872.716 143.007 877.043 143.74 881.883 143.74C889.216 143.74 894.349 141.833 897.283 138.02C900.216 134.207 901.683 129.22 901.683 123.06C901.683 118.367 900.803 114.04 899.043 110.08C897.429 106.12 894.349 101.427 889.803 96L868.463 70.04C863.476 63.7333 859.956 58.0867 857.903 53.1C855.996 48.1133 855.043 43.1267 855.043 38.14C855.043 28.6067 858.269 20.8333 864.723 14.82C871.323 8.80666 880.929 5.79999 893.543 5.79999C904.103 5.79999 911.583 6.89999 915.983 9.09999C920.383 11.1533 922.583 13.8667 922.583 17.24C922.583 18.8533 922.216 20.6867 921.483 22.74C920.749 24.7933 919.503 26.7733 917.743 28.68C916.423 27.6533 913.856 26.5533 910.043 25.38C906.229 24.2067 901.903 23.62 897.063 23.62C890.756 23.62 885.769 24.8667 882.103 27.36C878.583 29.7067 876.823 33.08 876.823 37.48C876.823 41.2933 877.629 44.8133 879.243 48.04C880.856 51.12 883.203 54.64 886.283 58.6L909.163 85.66C914.736 92.4067 918.476 98.5667 920.383 104.14C922.436 109.567 923.463 115.653 923.463 122.4C923.463 129.733 922.216 136.627 919.723 143.08C917.376 149.387 913.343 154.52 907.623 158.48C902.049 162.293 894.129 164.2 883.863 164.2ZM970.881 164.2C965.455 164.2 960.688 163.467 956.581 162C952.475 160.68 949.028 158.04 946.241 154.08C943.601 150.12 941.548 144.62 940.081 137.58C938.761 130.393 938.101 121.007 938.101 109.42C938.101 96.22 939.275 85.66 941.621 77.74C943.968 69.82 947.048 63.88 950.861 59.92C954.821 55.8133 959.075 53.1 963.621 51.78C968.315 50.46 972.935 49.8 977.481 49.8C982.761 49.8 987.088 50.7533 990.461 52.66C993.981 54.5667 995.741 57.06 995.741 60.14C995.741 61.46 995.595 63.0733 995.301 64.98C995.155 66.8867 994.641 68.94 993.761 71.14C992.001 70.26 989.728 69.4533 986.941 68.72C984.301 67.84 981.588 67.4 978.801 67.4C976.455 67.4 974.108 67.9133 971.761 68.94C969.415 69.82 967.288 71.6533 965.381 74.44C963.475 77.2267 961.935 81.4067 960.761 86.98C959.588 92.5533 959.001 100.033 959.001 109.42C959.001 116.607 959.295 122.62 959.881 127.46C960.615 132.3 961.715 136.113 963.181 138.9C964.648 141.687 966.481 143.667 968.681 144.84C971.028 145.867 973.815 146.38 977.041 146.38C980.268 146.38 983.348 145.94 986.281 145.06C989.215 144.18 991.561 143.153 993.321 141.98C994.055 144.18 994.568 146.16 994.861 147.92C995.155 149.533 995.301 151.147 995.301 152.76C995.301 155.987 993.028 158.7 988.481 160.9C983.935 163.1 978.068 164.2 970.881 164.2ZM1012.83 162V9.32C1012.83 6.23999 1013.34 4.11332 1014.37 2.93999C1015.54 1.61999 1017.52 0.886656 1020.31 0.739991C1023.24 0.446662 1027.42 0.299997 1032.85 0.299997V58.16C1035.93 55.3733 1039.59 53.32 1043.85 52C1048.1 50.5333 1052.28 49.8 1056.39 49.8C1062.55 49.8 1067.17 50.9 1070.25 53.1C1073.33 55.3 1075.45 58.5267 1076.63 62.78C1077.8 67.0333 1078.39 72.3133 1078.39 78.62V158.04C1078.39 159.36 1078.02 160.313 1077.29 160.9C1076.55 161.34 1074.72 161.633 1071.79 161.78C1069 161.927 1064.31 162 1057.71 162V84.56C1057.71 80.16 1057.05 76.3467 1055.73 73.12C1054.55 69.8933 1051.55 68.28 1046.71 68.28C1044.65 68.28 1042.38 68.6467 1039.89 69.38C1037.54 70.1133 1035.19 71.4333 1032.85 73.34V158.04C1032.85 159.36 1032.55 160.313 1031.97 160.9C1031.53 161.34 1029.84 161.633 1026.91 161.78C1024.12 161.927 1019.43 162 1012.83 162ZM1132.68 164.2C1126.96 164.2 1121.9 163.467 1117.5 162C1113.25 160.68 1109.65 158.04 1106.72 154.08C1103.79 150.12 1101.59 144.4 1100.12 136.92C1098.8 129.293 1098.14 119.32 1098.14 107C1098.14 86.9067 1101.37 72.3867 1107.82 63.44C1114.27 54.3467 1123.22 49.8 1134.66 49.8C1142.43 49.8 1148.81 51.4133 1153.8 54.64C1158.93 57.72 1162.75 63.3667 1165.24 71.58C1167.73 79.7933 1168.98 91.38 1168.98 106.34C1168.98 127.02 1165.9 141.833 1159.74 150.78C1153.58 159.727 1144.56 164.2 1132.68 164.2ZM1133.34 147.26C1135.98 147.26 1138.33 146.307 1140.38 144.4C1142.43 142.347 1144.05 138.387 1145.22 132.52C1146.39 126.507 1146.98 117.853 1146.98 106.56C1146.98 95.2667 1146.54 86.76 1145.66 81.04C1144.78 75.32 1143.39 71.5067 1141.48 69.6C1139.57 67.6933 1137.08 66.74 1134 66.74C1131.21 66.74 1128.72 67.7667 1126.52 69.82C1124.47 71.8733 1122.85 75.8333 1121.68 81.7C1120.51 87.5667 1119.92 96.0733 1119.92 107.22C1119.92 116.02 1120.21 123.133 1120.8 128.56C1121.39 133.987 1122.19 138.02 1123.22 140.66C1124.39 143.3 1125.79 145.06 1127.4 145.94C1129.16 146.82 1131.14 147.26 1133.34 147.26ZM1219.15 164.2C1213.43 164.2 1208.37 163.467 1203.97 162C1199.72 160.68 1196.12 158.04 1193.19 154.08C1190.26 150.12 1188.06 144.4 1186.59 136.92C1185.27 129.293 1184.61 119.32 1184.61 107C1184.61 86.9067 1187.84 72.3867 1194.29 63.44C1200.74 54.3467 1209.69 49.8 1221.13 49.8C1228.9 49.8 1235.28 51.4133 1240.27 54.64C1245.4 57.72 1249.22 63.3667 1251.71 71.58C1254.2 79.7933 1255.45 91.38 1255.45 106.34C1255.45 127.02 1252.37 141.833 1246.21 150.78C1240.05 159.727 1231.03 164.2 1219.15 164.2ZM1219.81 147.26C1222.45 147.26 1224.8 146.307 1226.85 144.4C1228.9 142.347 1230.52 138.387 1231.69 132.52C1232.86 126.507 1233.45 117.853 1233.45 106.56C1233.45 95.2667 1233.01 86.76 1232.13 81.04C1231.25 75.32 1229.86 71.5067 1227.95 69.6C1226.04 67.6933 1223.55 66.74 1220.47 66.74C1217.68 66.74 1215.19 67.7667 1212.99 69.82C1210.94 71.8733 1209.32 75.8333 1208.15 81.7C1206.98 87.5667 1206.39 96.0733 1206.39 107.22C1206.39 116.02 1206.68 123.133 1207.27 128.56C1207.86 133.987 1208.66 138.02 1209.69 140.66C1210.86 143.3 1212.26 145.06 1213.87 145.94C1215.63 146.82 1217.61 147.26 1219.81 147.26ZM1274.39 162V9.32C1274.39 6.23999 1274.91 4.11332 1275.93 2.93999C1276.96 1.61999 1278.94 0.886656 1281.87 0.739991C1284.81 0.446662 1288.99 0.299997 1294.41 0.299997V158.04C1294.41 159.36 1294.12 160.313 1293.53 160.9C1292.95 161.34 1291.26 161.633 1288.47 161.78C1285.69 161.927 1280.99 162 1274.39 162Z" fill="#60495D"></path></svg>